<svg width="974" height="327" viewBox="0 0 974 327" fill="none" xmlns="http://www.w3.org/2000/svg">
<path d="M60.6146 18.6418L17.9871 136H0.564722L49.6482 7.23326H60.8799L60.6146 18.6418ZM96.3438 136L53.6279 18.6418L53.3626 7.23326H64.5943L113.855 136H96.3438ZM94.1329 88.3315V102.305H21.79V88.3315H94.1329ZM164.201 124.326C168.092 124.326 171.689 123.53 174.991 121.938C178.292 120.346 181.004 118.165 183.127 115.394C185.249 112.564 186.458 109.35 186.753 105.754H202.318C202.023 111.414 200.107 116.691 196.57 121.584C193.091 126.419 188.522 130.34 182.862 133.347C177.202 136.295 170.981 137.769 164.201 137.769C157.008 137.769 150.729 136.501 145.364 133.966C140.057 131.431 135.635 127.952 132.098 123.53C128.619 119.108 125.996 114.038 124.227 108.319C122.517 102.541 121.662 96.4384 121.662 90.0119V86.2975C121.662 79.8709 122.517 73.7981 124.227 68.0791C125.996 62.3011 128.619 57.2011 132.098 52.7792C135.635 48.3573 140.057 44.8787 145.364 42.3434C150.729 39.8082 157.008 38.5406 164.201 38.5406C171.689 38.5406 178.233 40.0735 183.834 43.1394C189.436 46.1463 193.828 50.2734 197.012 55.5208C200.255 60.7092 202.023 66.6051 202.318 73.2085H186.753C186.458 69.2583 185.338 65.6912 183.392 62.5074C181.506 59.3236 178.911 56.7884 175.61 54.9017C172.367 52.9561 168.564 51.9832 164.201 51.9832C159.19 51.9832 154.974 52.9855 151.554 54.9902C148.194 56.9358 145.511 59.589 143.506 62.9496C141.561 66.2513 140.146 69.9363 139.261 74.0045C138.436 78.0137 138.023 82.1114 138.023 86.2975V90.0119C138.023 94.198 138.436 98.3251 139.261 102.393C140.087 106.461 141.472 110.146 143.418 113.448C145.423 116.75 148.105 119.403 151.466 121.408C154.886 123.353 159.131 124.326 164.201 124.326ZM256.291 124.326C260.182 124.326 263.778 123.53 267.08 121.938C270.382 120.346 273.094 118.165 275.216 115.394C277.339 112.564 278.548 109.35 278.842 105.754H294.408C294.113 111.414 292.197 116.691 288.659 121.584C285.18 126.419 280.611 130.34 274.951 133.347C269.291 136.295 263.071 137.769 256.291 137.769C249.098 137.769 242.818 136.501 237.453 133.966C232.147 131.431 227.725 127.952 224.187 123.53C220.709 119.108 218.085 114.038 216.316 108.319C214.606 102.541 213.752 96.4384 213.752 90.0119V86.2975C213.752 79.8709 214.606 73.7981 216.316 68.0791C218.085 62.3011 220.709 57.2011 224.187 52.7792C227.725 48.3573 232.147 44.8787 237.453 42.3434C242.818 39.8082 249.098 38.5406 256.291 38.5406C263.778 38.5406 270.323 40.0735 275.924 43.1394C281.525 46.1463 285.917 50.2734 289.101 55.5208C292.344 60.7092 294.113 66.6051 294.408 73.2085H278.842C278.548 69.2583 277.427 65.6912 275.482 62.5074C273.595 59.3236 271.001 56.7884 267.699 54.9017C264.456 52.9561 260.653 51.9832 256.291 51.9832C251.279 51.9832 247.063 52.9855 243.644 54.9902C240.283 56.9358 237.6 59.589 235.596 62.9496C233.65 66.2513 232.235 69.9363 231.351 74.0045C230.525 78.0137 230.113 82.1114 230.113 86.2975V90.0119C230.113 94.198 230.525 98.3251 231.351 102.393C232.176 106.461 233.562 110.146 235.507 113.448C237.512 116.75 240.195 119.403 243.555 121.408C246.975 123.353 251.22 124.326 256.291 124.326ZM305.753 89.2159V87.1818C305.753 80.2836 306.755 73.8866 308.759 67.9906C310.764 62.0358 313.653 56.8768 317.426 52.5139C321.2 48.0919 325.769 44.6723 331.134 42.255C336.5 39.7787 342.514 38.5406 349.176 38.5406C355.897 38.5406 361.941 39.7787 367.306 42.255C372.73 44.6723 377.329 48.0919 381.102 52.5139C384.935 56.8768 387.853 62.0358 389.858 67.9906C391.862 73.8866 392.865 80.2836 392.865 87.1818V89.2159C392.865 96.1141 391.862 102.511 389.858 108.407C387.853 114.303 384.935 119.462 381.102 123.884C377.329 128.247 372.76 131.667 367.394 134.143C362.088 136.56 356.074 137.769 349.353 137.769C342.631 137.769 336.588 136.56 331.223 134.143C325.858 131.667 321.259 128.247 317.426 123.884C313.653 119.462 310.764 114.303 308.759 108.407C306.755 102.511 305.753 96.1141 305.753 89.2159ZM322.114 87.1818V89.2159C322.114 93.9916 322.674 98.502 323.794 102.747C324.914 106.933 326.595 110.648 328.835 113.89C331.134 117.133 333.994 119.698 337.414 121.584C340.833 123.412 344.813 124.326 349.353 124.326C353.834 124.326 357.754 123.412 361.115 121.584C364.535 119.698 367.365 117.133 369.605 113.89C371.846 110.648 373.526 106.933 374.646 102.747C375.825 98.502 376.415 93.9916 376.415 89.2159V87.1818C376.415 82.4651 375.825 78.0137 374.646 73.8276C373.526 69.5825 371.816 65.8386 369.517 62.5959C367.276 59.2942 364.446 56.7 361.027 54.8133C357.666 52.9266 353.716 51.9832 349.176 51.9832C344.695 51.9832 340.745 52.9266 337.325 54.8133C333.964 56.7 331.134 59.2942 328.835 62.5959C326.595 65.8386 324.914 69.5825 323.794 73.8276C322.674 78.0137 322.114 82.4651 322.114 87.1818ZM428.442 0.158161V136H411.992V0.158161H428.442ZM508.415 119.639V70.3785C508.415 66.6051 507.649 63.3329 506.116 60.5618C504.642 57.7318 502.401 55.5503 499.394 54.0173C496.387 52.4844 492.673 51.7179 488.251 51.7179C484.124 51.7179 480.498 52.4254 477.373 53.8405C474.307 55.2555 471.89 57.1127 470.121 59.4121C468.411 61.7115 467.556 64.1878 467.556 66.8409H451.195C451.195 63.4213 452.08 60.0312 453.848 56.6705C455.617 53.3098 458.152 50.2734 461.454 47.5613C464.815 44.7902 468.824 42.6087 473.482 41.0168C478.199 39.366 483.446 38.5406 489.224 38.5406C496.181 38.5406 502.313 39.7197 507.619 42.0781C512.984 44.4365 517.171 48.0035 520.177 52.7792C523.243 57.4959 524.776 63.4213 524.776 70.5554V115.128C524.776 118.312 525.042 121.702 525.572 125.299C526.162 128.895 527.017 131.991 528.137 134.585V136H511.068C510.243 134.113 509.594 131.608 509.123 128.483C508.651 125.299 508.415 122.351 508.415 119.639ZM511.245 77.9842L511.422 89.4812H494.884C490.226 89.4812 486.07 89.8645 482.414 90.6309C478.759 91.3385 475.693 92.4292 473.217 93.9032C470.74 95.3772 468.854 97.2344 467.556 99.4748C466.259 101.656 465.611 104.221 465.611 107.169C465.611 110.176 466.289 112.918 467.645 115.394C469.001 117.87 471.035 119.845 473.747 121.319C476.518 122.734 479.908 123.442 483.918 123.442C488.929 123.442 493.351 122.38 497.183 120.258C501.016 118.135 504.052 115.541 506.293 112.475C508.592 109.409 509.83 106.432 510.007 103.543L516.994 111.414C516.581 113.89 515.461 116.632 513.633 119.639C511.805 122.646 509.358 125.535 506.293 128.306C503.286 131.018 499.689 133.288 495.503 135.116C491.376 136.884 486.718 137.769 481.53 137.769C475.044 137.769 469.355 136.501 464.461 133.966C459.626 131.431 455.853 128.041 453.141 123.795C450.488 119.491 449.161 114.686 449.161 109.38C449.161 104.251 450.163 99.7401 452.168 95.8488C454.173 91.8986 457.062 88.6263 460.835 86.0321C464.608 83.379 469.148 81.3744 474.455 80.0183C479.761 78.6622 485.686 77.9842 492.231 77.9842H511.245ZM608.11 117.428V0.158161H624.56V136H609.525L608.11 117.428ZM543.727 89.2159V87.3587C543.727 80.0478 544.611 73.4149 546.38 67.46C548.208 61.4462 550.772 56.2873 554.074 51.9832C557.435 47.6792 561.415 44.3775 566.013 42.0781C570.671 39.7197 575.86 38.5406 581.579 38.5406C587.592 38.5406 592.84 39.6018 597.321 41.7243C601.861 43.7879 605.693 46.8243 608.818 50.8335C612.002 54.7838 614.507 59.5595 616.335 65.1606C618.163 70.7617 619.43 77.0998 620.138 84.1749V92.3113C619.489 99.3274 618.222 105.636 616.335 111.237C614.507 116.838 612.002 121.614 608.818 125.564C605.693 129.514 601.861 132.551 597.321 134.673C592.781 136.737 587.475 137.769 581.402 137.769C575.801 137.769 570.671 136.56 566.013 134.143C561.415 131.725 557.435 128.335 554.074 123.972C550.772 119.609 548.208 114.48 546.38 108.584C544.611 102.629 543.727 96.1731 543.727 89.2159ZM560.176 87.3587V89.2159C560.176 93.9916 560.648 98.4725 561.591 102.659C562.594 106.845 564.127 110.53 566.19 113.713C568.254 116.897 570.878 119.403 574.061 121.231C577.245 123 581.048 123.884 585.47 123.884C590.894 123.884 595.346 122.734 598.824 120.435C602.362 118.135 605.192 115.099 607.314 111.326C609.437 107.552 611.088 103.455 612.267 99.0326V77.7189C611.559 74.4761 610.528 71.3513 609.172 68.3444C607.874 65.2785 606.165 62.5664 604.042 60.208C601.978 57.7907 599.414 55.8745 596.348 54.4595C593.341 53.0445 589.774 52.337 585.647 52.337C581.166 52.337 577.304 53.2803 574.061 55.167C570.878 56.9948 568.254 59.53 566.19 62.7728C564.127 65.9566 562.594 69.671 561.591 73.916C560.648 78.1021 560.176 82.583 560.176 87.3587ZM687.022 137.769C680.36 137.769 674.317 136.649 668.892 134.408C663.527 132.109 658.899 128.895 655.008 124.768C651.175 120.641 648.227 115.748 646.164 110.087C644.1 104.427 643.068 98.2367 643.068 91.5153V87.8009C643.068 80.0183 644.218 73.0906 646.517 67.0178C648.817 60.8861 651.942 55.6977 655.892 51.4526C659.842 47.2075 664.323 43.9943 669.335 41.8128C674.346 39.6313 679.535 38.5406 684.9 38.5406C691.739 38.5406 697.635 39.7197 702.588 42.0781C707.599 44.4365 711.697 47.7382 714.881 51.9832C718.064 56.1693 720.423 61.1219 721.956 66.8409C723.489 72.501 724.255 78.6917 724.255 85.4131V92.7535H652.797V79.3992H707.894V78.1611C707.658 73.916 706.774 69.7889 705.241 65.7797C703.767 61.7705 701.408 58.4687 698.166 55.8745C694.923 53.2803 690.501 51.9832 684.9 51.9832C681.185 51.9832 677.766 52.7792 674.641 54.3711C671.516 55.904 668.833 58.2034 666.593 61.2693C664.353 64.3352 662.613 68.0791 661.375 72.501C660.137 76.923 659.518 82.0229 659.518 87.8009V91.5153C659.518 96.0552 660.137 100.33 661.375 104.339C662.672 108.289 664.529 111.768 666.947 114.775C669.423 117.782 672.4 120.14 675.879 121.85C679.417 123.56 683.426 124.415 687.907 124.415C693.685 124.415 698.578 123.235 702.588 120.877C706.597 118.519 710.105 115.364 713.112 111.414L723.017 119.285C720.953 122.41 718.33 125.387 715.146 128.217C711.962 131.047 708.041 133.347 703.383 135.116C698.785 136.884 693.331 137.769 687.022 137.769ZM796.357 110.618C796.357 108.26 795.827 106.078 794.765 104.074C793.763 102.01 791.67 100.153 788.486 98.502C785.361 96.7922 780.645 95.3182 774.336 94.0801C769.03 92.9598 764.225 91.6333 759.921 90.1003C755.676 88.5674 752.05 86.7102 749.043 84.5287C746.095 82.3472 743.825 79.7825 742.233 76.8345C740.641 73.8866 739.845 70.4374 739.845 66.4872C739.845 62.7138 740.67 59.1468 742.321 55.7861C744.031 52.4254 746.419 49.448 749.485 46.8538C752.61 44.2596 756.354 42.2255 760.717 40.7515C765.079 39.2775 769.944 38.5406 775.309 38.5406C782.974 38.5406 789.518 39.8966 794.942 42.6087C800.367 45.3209 804.523 48.9468 807.412 53.4867C810.301 57.9676 811.746 62.9496 811.746 68.4328H795.384C795.384 65.7797 794.589 63.215 792.997 60.7387C791.464 58.2034 789.194 56.1104 786.187 54.4595C783.239 52.8087 779.613 51.9832 775.309 51.9832C770.769 51.9832 767.084 52.6907 764.254 54.1058C761.483 55.4618 759.449 57.2011 758.152 59.3236C756.914 61.4462 756.295 63.6866 756.295 66.045C756.295 67.8138 756.589 69.4057 757.179 70.8207C757.828 72.1767 758.948 73.4444 760.54 74.6235C762.132 75.7438 764.372 76.805 767.261 77.8073C770.15 78.8096 773.835 79.8119 778.316 80.8143C786.157 82.583 792.613 84.7056 797.684 87.1818C802.754 89.6581 806.528 92.6945 809.004 96.291C811.48 99.8875 812.718 104.251 812.718 109.38C812.718 113.566 811.834 117.398 810.065 120.877C808.356 124.356 805.85 127.362 802.548 129.898C799.305 132.374 795.414 134.32 790.874 135.735C786.393 137.091 781.352 137.769 775.751 137.769C767.32 137.769 760.186 136.265 754.349 133.258C748.512 130.251 744.09 126.36 741.083 121.584C738.076 116.809 736.573 111.768 736.573 106.461H753.022C753.258 110.942 754.555 114.509 756.914 117.163C759.272 119.757 762.161 121.614 765.581 122.734C769 123.795 772.39 124.326 775.751 124.326C780.232 124.326 783.976 123.737 786.983 122.557C790.049 121.378 792.378 119.757 793.969 117.693C795.561 115.63 796.357 113.271 796.357 110.618ZM897.492 64.5415L916.772 50.8335C920.486 48.2983 923.346 45.763 925.35 43.2278C927.414 40.6336 928.446 37.0961 928.446 32.6152C928.446 29.1366 927.09 25.9823 924.378 23.1522C921.666 20.2632 917.833 18.8187 912.881 18.8187C909.461 18.8187 906.572 19.6147 904.214 21.2066C901.855 22.7985 900.086 24.921 898.907 27.5742C897.728 30.1684 897.139 33.0279 897.139 36.1527C897.139 38.8059 897.787 41.5475 899.084 44.3775C900.381 47.2075 902.18 50.1555 904.479 53.2214C906.778 56.2873 909.402 59.53 912.35 62.9496L973.284 136H953.651L903.683 76.2154C899.261 71.027 895.311 66.2808 891.832 61.9768C888.354 57.6138 885.612 53.3983 883.607 49.3301C881.662 45.2619 880.689 41.0463 880.689 36.6833C880.689 29.962 882.016 24.3019 884.669 19.7031C887.381 15.0453 891.154 11.5078 895.989 9.09047C900.823 6.67315 906.484 5.46448 912.969 5.46448C919.278 5.46448 924.702 6.7321 929.242 9.26735C933.841 11.7436 937.378 15.0453 939.854 19.1725C942.331 23.2407 943.569 27.7216 943.569 32.6152C943.569 36.7423 942.832 40.4567 941.358 43.7584C939.884 47.0012 937.82 49.9786 935.167 52.6907C932.573 55.4029 929.537 58.056 926.058 60.6502L900.499 79.6645C896.254 82.7894 893.159 85.7668 891.213 88.5969C889.267 91.4269 888 93.9327 887.41 96.1141C886.88 98.2956 886.614 100.035 886.614 101.332C886.614 105.518 887.528 109.35 889.356 112.829C891.184 116.308 893.955 119.108 897.669 121.231C901.443 123.294 906.159 124.326 911.819 124.326C916.772 124.326 921.577 123.206 926.235 120.965C930.952 118.666 935.167 115.423 938.882 111.237C942.596 106.992 945.544 101.951 947.725 96.1141C949.966 90.2182 951.086 83.7033 951.086 76.5692H965.767C965.767 82.4061 965.207 87.9188 964.087 93.1072C962.966 98.2956 961.227 103.13 958.869 107.611C956.569 112.033 953.621 116.072 950.025 119.727C949.494 120.258 949.082 120.877 948.787 121.584C948.492 122.292 948.079 122.911 947.549 123.442C943.127 128.217 937.673 131.814 931.187 134.231C924.761 136.59 918.305 137.769 911.819 137.769C903.27 137.769 895.871 136.206 889.621 133.082C883.431 129.957 878.655 125.653 875.294 120.169C871.934 114.686 870.253 108.407 870.253 101.332C870.253 95.9078 871.403 91.1321 873.702 87.005C876.061 82.8778 879.274 79.016 883.342 75.4195C887.469 71.823 892.186 68.197 897.492 64.5415ZM12.9461 160.233H55.5736C65.2429 160.233 73.4087 161.707 80.0711 164.655C86.7925 167.603 91.8924 171.966 95.371 177.744C98.9086 183.463 100.677 190.509 100.677 198.881C100.677 204.777 99.4687 210.172 97.0513 215.065C94.693 219.9 91.2733 224.027 86.7925 227.447C82.3705 230.807 77.0642 233.313 70.8735 234.964L66.0978 236.821H26.0351L25.8582 222.936H56.1042C62.236 222.936 67.3359 221.875 71.4041 219.753C75.4723 217.571 78.5382 214.653 80.6017 210.997C82.6653 207.342 83.6971 203.303 83.6971 198.881C83.6971 193.928 82.7243 189.595 80.7786 185.88C78.833 182.166 75.7671 179.307 71.581 177.302C67.4539 175.238 62.1181 174.207 55.5736 174.207H30.0148V289H12.9461V160.233ZM88.2075 289L56.9002 230.63L74.6764 230.542L106.426 287.939V289H88.2075ZM159.072 290.769C152.409 290.769 146.366 289.649 140.942 287.408C135.576 285.109 130.948 281.895 127.057 277.768C123.224 273.641 120.277 268.748 118.213 263.087C116.149 257.427 115.118 251.237 115.118 244.515V240.801C115.118 233.018 116.267 226.091 118.567 220.018C120.866 213.886 123.991 208.698 127.941 204.453C131.891 200.208 136.372 196.994 141.384 194.813C146.395 192.631 151.584 191.541 156.949 191.541C163.788 191.541 169.684 192.72 174.637 195.078C179.648 197.436 183.746 200.738 186.93 204.983C190.114 209.169 192.472 214.122 194.005 219.841C195.538 225.501 196.304 231.692 196.304 238.413V245.753H124.846V232.399H179.943V231.161C179.707 226.916 178.823 222.789 177.29 218.78C175.816 214.77 173.458 211.469 170.215 208.875C166.972 206.28 162.55 204.983 156.949 204.983C153.235 204.983 149.815 205.779 146.69 207.371C143.565 208.904 140.883 211.203 138.642 214.269C136.402 217.335 134.663 221.079 133.424 225.501C132.186 229.923 131.567 235.023 131.567 240.801V244.515C131.567 249.055 132.186 253.33 133.424 257.339C134.722 261.289 136.579 264.768 138.996 267.775C141.472 270.782 144.45 273.14 147.928 274.85C151.466 276.56 155.475 277.415 159.956 277.415C165.734 277.415 170.628 276.235 174.637 273.877C178.646 271.519 182.154 268.364 185.161 264.414L195.066 272.285C193.003 275.41 190.379 278.387 187.195 281.217C184.011 284.047 180.091 286.347 175.433 288.116C170.834 289.884 165.38 290.769 159.072 290.769ZM250.984 277.326C254.875 277.326 258.472 276.53 261.774 274.938C265.075 273.346 267.788 271.165 269.91 268.394C272.033 265.564 273.241 262.35 273.536 258.754H289.101C288.806 264.414 286.89 269.691 283.353 274.584C279.874 279.419 275.305 283.34 269.645 286.347C263.985 289.295 257.764 290.769 250.984 290.769C243.791 290.769 237.512 289.501 232.147 286.966C226.84 284.431 222.418 280.952 218.881 276.53C215.402 272.108 212.779 267.038 211.01 261.319C209.3 255.541 208.445 249.438 208.445 243.012V239.297C208.445 232.871 209.3 226.798 211.01 221.079C212.779 215.301 215.402 210.201 218.881 205.779C222.418 201.357 226.84 197.879 232.147 195.343C237.512 192.808 243.791 191.541 250.984 191.541C258.472 191.541 265.016 193.073 270.618 196.139C276.219 199.146 280.611 203.273 283.795 208.521C287.038 213.709 288.806 219.605 289.101 226.209H273.536C273.241 222.258 272.121 218.691 270.175 215.507C268.289 212.324 265.694 209.788 262.393 207.902C259.15 205.956 255.347 204.983 250.984 204.983C245.973 204.983 241.757 205.986 238.337 207.99C234.977 209.936 232.294 212.589 230.29 215.95C228.344 219.251 226.929 222.936 226.044 227.004C225.219 231.014 224.806 235.111 224.806 239.297V243.012C224.806 247.198 225.219 251.325 226.044 255.393C226.87 259.461 228.255 263.146 230.201 266.448C232.206 269.75 234.888 272.403 238.249 274.408C241.669 276.353 245.914 277.326 250.984 277.326ZM300.446 242.216V240.182C300.446 233.284 301.449 226.887 303.453 220.991C305.458 215.036 308.347 209.877 312.12 205.514C315.893 201.092 320.463 197.672 325.828 195.255C331.193 192.779 337.207 191.541 343.87 191.541C350.591 191.541 356.634 192.779 362 195.255C367.424 197.672 372.023 201.092 375.796 205.514C379.628 209.877 382.547 215.036 384.551 220.991C386.556 226.887 387.558 233.284 387.558 240.182V242.216C387.558 249.114 386.556 255.511 384.551 261.407C382.547 267.303 379.628 272.462 375.796 276.884C372.023 281.247 367.453 284.667 362.088 287.143C356.782 289.56 350.768 290.769 344.046 290.769C337.325 290.769 331.282 289.56 325.917 287.143C320.551 284.667 315.952 281.247 312.12 276.884C308.347 272.462 305.458 267.303 303.453 261.407C301.449 255.511 300.446 249.114 300.446 242.216ZM316.807 240.182V242.216C316.807 246.992 317.367 251.502 318.488 255.747C319.608 259.933 321.288 263.648 323.529 266.89C325.828 270.133 328.688 272.698 332.107 274.584C335.527 276.412 339.507 277.326 344.046 277.326C348.527 277.326 352.448 276.412 355.809 274.584C359.228 272.698 362.058 270.133 364.299 266.89C366.539 263.648 368.22 259.933 369.34 255.747C370.519 251.502 371.109 246.992 371.109 242.216V240.182C371.109 235.465 370.519 231.014 369.34 226.828C368.22 222.583 366.51 218.839 364.211 215.596C361.97 212.294 359.14 209.7 355.72 207.813C352.36 205.927 348.409 204.983 343.87 204.983C339.389 204.983 335.438 205.927 332.019 207.813C328.658 209.7 325.828 212.294 323.529 215.596C321.288 218.839 319.608 222.583 318.488 226.828C317.367 231.014 316.807 235.465 316.807 240.182ZM467.355 193.309H482.212V286.966C482.212 295.397 480.503 302.59 477.083 308.545C473.663 314.5 468.888 319.01 462.756 322.076C456.683 325.201 449.667 326.763 441.708 326.763C438.406 326.763 434.515 326.233 430.034 325.171C425.612 324.169 421.249 322.43 416.945 319.954C412.7 317.536 409.133 314.264 406.244 310.137L414.822 300.409C418.831 305.243 423.018 308.604 427.38 310.491C431.802 312.377 436.165 313.321 440.469 313.321C445.658 313.321 450.139 312.348 453.912 310.402C457.685 308.457 460.604 305.568 462.668 301.735C464.79 297.962 465.851 293.304 465.851 287.762V214.358L467.355 193.309ZM401.468 242.216V240.359C401.468 233.048 402.323 226.415 404.033 220.46C405.801 214.446 408.307 209.287 411.55 204.983C414.852 200.679 418.831 197.378 423.489 195.078C428.147 192.72 433.394 191.541 439.231 191.541C445.245 191.541 450.492 192.602 454.973 194.724C459.513 196.788 463.346 199.824 466.47 203.834C469.654 207.784 472.16 212.559 473.988 218.161C475.815 223.762 477.083 230.1 477.791 237.175V245.311C477.142 252.327 475.874 258.636 473.988 264.237C472.16 269.838 469.654 274.614 466.47 278.564C463.346 282.514 459.513 285.551 454.973 287.673C450.434 289.737 445.127 290.769 439.054 290.769C433.335 290.769 428.147 289.56 423.489 287.143C418.89 284.725 414.94 281.335 411.638 276.972C408.337 272.609 405.801 267.48 404.033 261.584C402.323 255.629 401.468 249.173 401.468 242.216ZM417.829 240.359V242.216C417.829 246.992 418.301 251.473 419.244 255.659C420.246 259.845 421.75 263.53 423.755 266.713C425.818 269.897 428.442 272.403 431.626 274.231C434.809 276 438.612 276.884 443.034 276.884C448.458 276.884 452.939 275.734 456.477 273.435C460.014 271.135 462.815 268.099 464.879 264.326C467.001 260.552 468.652 256.455 469.831 252.033V230.719C469.183 227.476 468.18 224.351 466.824 221.344C465.527 218.279 463.817 215.566 461.695 213.208C459.631 210.791 457.066 208.875 454.001 207.46C450.935 206.045 447.338 205.337 443.211 205.337C438.73 205.337 434.868 206.28 431.626 208.167C428.442 209.995 425.818 212.53 423.755 215.773C421.75 218.957 420.246 222.671 419.244 226.916C418.301 231.102 417.829 235.583 417.829 240.359ZM520.708 213.739V289H504.347V193.309H519.824L520.708 213.739ZM516.817 237.529L510.007 237.263C510.066 230.719 511.039 224.676 512.925 219.133C514.812 213.532 517.465 208.668 520.885 204.541C524.305 200.414 528.373 197.23 533.089 194.99C537.865 192.69 543.142 191.541 548.92 191.541C553.637 191.541 557.882 192.189 561.655 193.486C565.429 194.724 568.642 196.729 571.295 199.5C574.007 202.271 576.071 205.868 577.486 210.29C578.901 214.653 579.608 219.988 579.608 226.297V289H563.159V226.12C563.159 221.109 562.422 217.099 560.948 214.092C559.474 211.027 557.322 208.816 554.492 207.46C551.662 206.045 548.183 205.337 544.056 205.337C539.988 205.337 536.273 206.192 532.913 207.902C529.611 209.612 526.751 211.97 524.334 214.977C521.976 217.984 520.118 221.433 518.762 225.324C517.465 229.156 516.817 233.225 516.817 237.529ZM619.519 193.309V289H603.069V193.309H619.519ZM601.831 167.927C601.831 165.274 602.627 163.034 604.219 161.206C605.87 159.378 608.287 158.464 611.471 158.464C614.596 158.464 616.984 159.378 618.634 161.206C620.344 163.034 621.199 165.274 621.199 167.927C621.199 170.463 620.344 172.644 618.634 174.472C616.984 176.241 614.596 177.125 611.471 177.125C608.287 177.125 605.87 176.241 604.219 174.472C602.627 172.644 601.831 170.463 601.831 167.927ZM683.131 193.309V205.868H631.394V193.309H683.131ZM648.905 170.05H665.266V265.298C665.266 268.541 665.768 270.988 666.77 272.639C667.772 274.29 669.069 275.38 670.661 275.911C672.253 276.442 673.963 276.707 675.791 276.707C677.147 276.707 678.562 276.589 680.036 276.353C681.569 276.058 682.718 275.823 683.485 275.646L683.573 289C682.276 289.413 680.566 289.796 678.444 290.15C676.38 290.562 673.874 290.769 670.926 290.769C666.917 290.769 663.232 289.973 659.872 288.381C656.511 286.789 653.828 284.136 651.824 280.421C649.878 276.648 648.905 271.578 648.905 265.21V170.05ZM717.382 193.309V289H700.932V193.309H717.382ZM699.694 167.927C699.694 165.274 700.49 163.034 702.082 161.206C703.733 159.378 706.15 158.464 709.334 158.464C712.459 158.464 714.846 159.378 716.497 161.206C718.207 163.034 719.062 165.274 719.062 167.927C719.062 170.463 718.207 172.644 716.497 174.472C714.846 176.241 712.459 177.125 709.334 177.125C706.15 177.125 703.733 176.241 702.082 174.472C700.49 172.644 699.694 170.463 699.694 167.927ZM736.598 242.216V240.182C736.598 233.284 737.6 226.887 739.604 220.991C741.609 215.036 744.498 209.877 748.271 205.514C752.045 201.092 756.614 197.672 761.979 195.255C767.345 192.779 773.359 191.541 780.021 191.541C786.742 191.541 792.786 192.779 798.151 195.255C803.575 197.672 808.174 201.092 811.947 205.514C815.78 209.877 818.698 215.036 820.703 220.991C822.707 226.887 823.71 233.284 823.71 240.182V242.216C823.71 249.114 822.707 255.511 820.703 261.407C818.698 267.303 815.78 272.462 811.947 276.884C808.174 281.247 803.605 284.667 798.239 287.143C792.933 289.56 786.919 290.769 780.198 290.769C773.476 290.769 767.433 289.56 762.068 287.143C756.703 284.667 752.104 281.247 748.271 276.884C744.498 272.462 741.609 267.303 739.604 261.407C737.6 255.511 736.598 249.114 736.598 242.216ZM752.959 240.182V242.216C752.959 246.992 753.519 251.502 754.639 255.747C755.759 259.933 757.44 263.648 759.68 266.89C761.979 270.133 764.839 272.698 768.259 274.584C771.678 276.412 775.658 277.326 780.198 277.326C784.679 277.326 788.599 276.412 791.96 274.584C795.38 272.698 798.21 270.133 800.45 266.89C802.691 263.648 804.371 259.933 805.491 255.747C806.67 251.502 807.26 246.992 807.26 242.216V240.182C807.26 235.465 806.67 231.014 805.491 226.828C804.371 222.583 802.661 218.839 800.362 215.596C798.121 212.294 795.291 209.7 791.872 207.813C788.511 205.927 784.561 204.983 780.021 204.983C775.54 204.983 771.59 205.927 768.17 207.813C764.809 209.7 761.979 212.294 759.68 215.596C757.44 218.839 755.759 222.583 754.639 226.828C753.519 231.014 752.959 235.465 752.959 240.182ZM857.872 213.739V289H841.511V193.309H856.987L857.872 213.739ZM853.98 237.529L847.171 237.263C847.23 230.719 848.202 224.676 850.089 219.133C851.976 213.532 854.629 208.668 858.049 204.541C861.468 200.414 865.536 197.23 870.253 194.99C875.029 192.69 880.306 191.541 886.084 191.541C890.8 191.541 895.046 192.189 898.819 193.486C902.592 194.724 905.806 196.729 908.459 199.5C911.171 202.271 913.234 205.868 914.649 210.29C916.064 214.653 916.772 219.988 916.772 226.297V289H900.322V226.12C900.322 221.109 899.585 217.099 898.111 214.092C896.637 211.027 894.485 208.816 891.655 207.46C888.825 206.045 885.347 205.337 881.22 205.337C877.151 205.337 873.437 206.192 870.076 207.902C866.775 209.612 863.915 211.97 861.498 214.977C859.139 217.984 857.282 221.433 855.926 225.324C854.629 229.156 853.98 233.225 853.98 237.529Z" fill="black" fill-opacity="0.02"/>
</svg>
