<svg width="965" height="291" viewBox="0 0 965 291" fill="none" xmlns="http://www.w3.org/2000/svg">
<path d="M86.7519 122.115V136H18.5657V122.115H86.7519ZM22.0148 7.23326V136H4.94614V7.23326H22.0148ZM77.7312 62.5959V76.4808H18.5657V62.5959H77.7312ZM85.8675 7.23326V21.2066H18.5657V7.23326H85.8675ZM113.751 40.3093L134.71 75.1542L155.936 40.3093H175.127L143.82 87.5356L176.1 136H157.174L135.064 100.094L112.955 136H93.9402L126.132 87.5356L94.9131 40.3093H113.751ZM206.194 58.7046V172.79H189.744V40.3093H204.779L206.194 58.7046ZM270.666 87.3587V89.2159C270.666 96.1731 269.84 102.629 268.189 108.584C266.538 114.48 264.121 119.609 260.937 123.972C257.812 128.335 253.951 131.725 249.352 134.143C244.753 136.56 239.476 137.769 233.521 137.769C227.448 137.769 222.083 136.766 217.425 134.762C212.768 132.757 208.817 129.839 205.575 126.006C202.332 122.174 199.738 117.575 197.792 112.21C195.905 106.845 194.608 100.801 193.901 94.0801V84.1749C194.608 77.0998 195.935 70.7617 197.88 65.1606C199.826 59.5595 202.391 54.7838 205.575 50.8335C208.817 46.8243 212.738 43.7879 217.337 41.7243C221.936 39.6018 227.242 38.5406 233.256 38.5406C239.27 38.5406 244.606 39.7197 249.263 42.0781C253.921 44.3775 257.842 47.6792 261.026 51.9832C264.209 56.2873 266.597 61.4462 268.189 67.46C269.84 73.4149 270.666 80.0478 270.666 87.3587ZM254.216 89.2159V87.3587C254.216 82.583 253.715 78.1021 252.712 73.916C251.71 69.671 250.148 65.9566 248.025 62.7728C245.962 59.53 243.308 56.9948 240.066 55.167C236.823 53.2803 232.961 52.337 228.48 52.337C224.353 52.337 220.757 53.0445 217.691 54.4595C214.684 55.8745 212.119 57.7907 209.997 60.208C207.874 62.5664 206.135 65.2785 204.779 68.3444C203.482 71.3513 202.509 74.4761 201.86 77.7189V100.625C203.039 104.752 204.69 108.643 206.813 112.298C208.935 115.895 211.765 118.813 215.303 121.054C218.84 123.235 223.292 124.326 228.657 124.326C233.079 124.326 236.882 123.412 240.066 121.584C243.308 119.698 245.962 117.133 248.025 113.89C250.148 110.648 251.71 106.933 252.712 102.747C253.715 98.502 254.216 93.9916 254.216 89.2159ZM306.596 0.158161V136H290.147V0.158161H306.596ZM325.812 89.2159V87.1818C325.812 80.2836 326.815 73.8866 328.819 67.9906C330.824 62.0358 333.713 56.8768 337.486 52.5139C341.26 48.0919 345.829 44.6723 351.194 42.255C356.56 39.7787 362.573 38.5406 369.236 38.5406C375.957 38.5406 382 39.7787 387.366 42.255C392.79 44.6723 397.389 48.0919 401.162 52.5139C404.994 56.8768 407.913 62.0358 409.918 67.9906C411.922 73.8866 412.924 80.2836 412.924 87.1818V89.2159C412.924 96.1141 411.922 102.511 409.918 108.407C407.913 114.303 404.994 119.462 401.162 123.884C397.389 128.247 392.819 131.667 387.454 134.143C382.148 136.56 376.134 137.769 369.413 137.769C362.691 137.769 356.648 136.56 351.283 134.143C345.917 131.667 341.319 128.247 337.486 123.884C333.713 119.462 330.824 114.303 328.819 108.407C326.815 102.511 325.812 96.1141 325.812 89.2159ZM342.173 87.1818V89.2159C342.173 93.9916 342.734 98.502 343.854 102.747C344.974 106.933 346.654 110.648 348.895 113.89C351.194 117.133 354.054 119.698 357.473 121.584C360.893 123.412 364.873 124.326 369.413 124.326C373.893 124.326 377.814 123.412 381.175 121.584C384.595 119.698 387.425 117.133 389.665 113.89C391.906 110.648 393.586 106.933 394.706 102.747C395.885 98.502 396.475 93.9916 396.475 89.2159V87.1818C396.475 82.4651 395.885 78.0137 394.706 73.8276C393.586 69.5825 391.876 65.8386 389.577 62.5959C387.336 59.2942 384.506 56.7 381.087 54.8133C377.726 52.9266 373.776 51.9832 369.236 51.9832C364.755 51.9832 360.805 52.9266 357.385 54.8133C354.024 56.7 351.194 59.2942 348.895 62.5959C346.654 65.8386 344.974 69.5825 343.854 73.8276C342.734 78.0137 342.173 82.4651 342.173 87.1818ZM447.087 55.3439V136H430.725V40.3093H446.644L447.087 55.3439ZM476.979 39.7787L476.89 54.9902C475.534 54.6954 474.237 54.5185 472.999 54.4595C471.82 54.3416 470.464 54.2826 468.931 54.2826C465.158 54.2826 461.826 54.8722 458.937 56.0514C456.048 57.2306 453.602 58.8815 451.597 61.004C449.592 63.1265 448 65.6618 446.821 68.6097C445.701 71.4987 444.964 74.6825 444.61 78.1611L440.011 80.8143C440.011 75.0363 440.572 69.612 441.692 64.5415C442.871 59.471 444.669 54.9902 447.087 51.0989C449.504 47.1486 452.57 44.0827 456.284 41.9012C460.058 39.6608 464.538 38.5406 469.727 38.5406C470.906 38.5406 472.262 38.688 473.795 38.9827C475.328 39.2186 476.389 39.4839 476.979 39.7787ZM527.325 137.769C520.663 137.769 514.62 136.649 509.195 134.408C503.83 132.109 499.202 128.895 495.31 124.768C491.478 120.641 488.53 115.748 486.467 110.087C484.403 104.427 483.371 98.2367 483.371 91.5153V87.8009C483.371 80.0183 484.521 73.0906 486.82 67.0178C489.12 60.8861 492.245 55.6977 496.195 51.4526C500.145 47.2075 504.626 43.9943 509.637 41.8128C514.649 39.6313 519.837 38.5406 525.203 38.5406C532.042 38.5406 537.938 39.7197 542.89 42.0781C547.902 44.4365 552 47.7382 555.183 51.9832C558.367 56.1693 560.726 61.1219 562.259 66.8409C563.791 72.501 564.558 78.6917 564.558 85.4131V92.7535H493.099V79.3992H548.197V78.1611C547.961 73.916 547.077 69.7889 545.544 65.7797C544.07 61.7705 541.711 58.4687 538.468 55.8745C535.226 53.2803 530.804 51.9832 525.203 51.9832C521.488 51.9832 518.069 52.7792 514.944 54.3711C511.819 55.904 509.136 58.2034 506.896 61.2693C504.655 64.3352 502.916 68.0791 501.678 72.501C500.44 76.923 499.821 82.0229 499.821 87.8009V91.5153C499.821 96.0552 500.44 100.33 501.678 104.339C502.975 108.289 504.832 111.768 507.25 114.775C509.726 117.782 512.703 120.14 516.182 121.85C519.719 123.56 523.729 124.415 528.21 124.415C533.988 124.415 538.881 123.235 542.89 120.877C546.9 118.519 550.408 115.364 553.415 111.414L563.32 119.285C561.256 122.41 558.633 125.387 555.449 128.217C552.265 131.047 548.344 133.347 543.686 135.116C539.088 136.884 533.634 137.769 527.325 137.769ZM104.086 220.548V228.685C104.086 238.354 102.877 247.021 100.46 254.686C98.0426 262.35 94.564 268.865 90.0242 274.231C85.4843 279.596 80.0306 283.694 73.663 286.524C67.3544 289.354 60.2793 290.769 52.4377 290.769C44.832 290.769 37.8453 289.354 31.4777 286.524C25.1691 283.694 19.6859 279.596 15.0282 274.231C10.4293 268.865 6.86231 262.35 4.32707 254.686C1.79183 247.021 0.524205 238.354 0.524205 228.685V220.548C0.524205 210.879 1.76235 202.242 4.23863 194.636C6.77387 186.971 10.3409 180.456 14.9397 175.091C19.5385 169.667 24.9922 165.54 31.3009 162.71C37.6685 159.88 44.6551 158.464 52.2608 158.464C60.1024 158.464 67.1775 159.88 73.4861 162.71C79.8537 165.54 85.3074 169.667 89.8473 175.091C94.4461 180.456 97.9542 186.971 100.371 194.636C102.848 202.242 104.086 210.879 104.086 220.548ZM87.1941 228.685V220.372C87.1941 212.707 86.3982 205.927 84.8063 200.031C83.2733 194.135 81.0034 189.182 77.9965 185.173C74.9896 181.164 71.3046 178.127 66.9417 176.064C62.6376 174 57.744 172.968 52.2608 172.968C46.9545 172.968 42.1494 174 37.8453 176.064C33.6003 178.127 29.9448 181.164 26.8789 185.173C23.872 189.182 21.5431 194.135 19.8923 200.031C18.2414 205.927 17.416 212.707 17.416 220.372V228.685C17.416 236.408 18.2414 243.248 19.8923 249.203C21.5431 255.098 23.9015 260.081 26.9674 264.149C30.0922 268.158 33.7772 271.194 38.0222 273.258C42.3262 275.321 47.1314 276.353 52.4377 276.353C57.9799 276.353 62.903 275.321 67.207 273.258C71.511 271.194 75.137 268.158 78.0849 264.149C81.0919 260.081 83.3618 255.098 84.8947 249.203C86.4277 243.248 87.1941 236.408 87.1941 228.685ZM182.998 266.89V193.309H199.448V289H183.794L182.998 266.89ZM186.093 246.726L192.903 246.549C192.903 252.917 192.225 258.813 190.869 264.237C189.572 269.602 187.449 274.26 184.501 278.21C181.554 282.161 177.692 285.256 172.916 287.497C168.14 289.678 162.333 290.769 155.494 290.769C150.836 290.769 146.561 290.091 142.67 288.735C138.838 287.379 135.536 285.286 132.765 282.456C129.994 279.625 127.842 275.941 126.309 271.401C124.835 266.861 124.098 261.407 124.098 255.04V193.309H140.459V255.216C140.459 259.52 140.931 263.087 141.874 265.918C142.876 268.689 144.203 270.9 145.854 272.55C147.564 274.142 149.45 275.263 151.514 275.911C153.636 276.56 155.818 276.884 158.058 276.884C165.015 276.884 170.528 275.557 174.596 272.904C178.665 270.192 181.583 266.566 183.352 262.026C185.179 257.427 186.093 252.327 186.093 246.726ZM238.032 208.344V289H221.67V193.309H237.589L238.032 208.344ZM267.924 192.779L267.835 207.99C266.479 207.695 265.182 207.518 263.944 207.46C262.765 207.342 261.409 207.283 259.876 207.283C256.103 207.283 252.771 207.872 249.882 209.051C246.993 210.231 244.547 211.881 242.542 214.004C240.537 216.127 238.946 218.662 237.766 221.61C236.646 224.499 235.909 227.683 235.555 231.161L230.957 233.814C230.957 228.036 231.517 222.612 232.637 217.542C233.816 212.471 235.614 207.99 238.032 204.099C240.449 200.149 243.515 197.083 247.229 194.901C251.003 192.661 255.484 191.541 260.672 191.541C261.851 191.541 263.207 191.688 264.74 191.983C266.273 192.219 267.334 192.484 267.924 192.779ZM393.645 256.455C393.645 253.448 393.173 250.794 392.23 248.495C391.345 246.137 389.754 244.014 387.454 242.127C385.214 240.241 382.089 238.443 378.08 236.733C374.129 235.023 369.118 233.284 363.045 231.515C356.677 229.628 350.929 227.535 345.799 225.236C340.67 222.877 336.278 220.195 332.622 217.188C328.967 214.181 326.166 210.732 324.22 206.84C322.275 202.949 321.302 198.498 321.302 193.486C321.302 188.475 322.334 183.846 324.397 179.601C326.461 175.356 329.409 171.671 333.241 168.546C337.132 165.363 341.761 162.886 347.126 161.118C352.491 159.349 358.476 158.464 365.079 158.464C374.748 158.464 382.944 160.322 389.665 164.036C396.445 167.692 401.604 172.497 405.142 178.452C408.679 184.348 410.448 190.656 410.448 197.378H393.468C393.468 192.543 392.436 188.268 390.373 184.554C388.309 180.781 385.184 177.833 380.998 175.71C376.812 173.529 371.506 172.438 365.079 172.438C359.006 172.438 353.995 173.352 350.045 175.179C346.094 177.007 343.146 179.483 341.201 182.608C339.314 185.733 338.371 189.3 338.371 193.309C338.371 196.021 338.931 198.498 340.051 200.738C341.23 202.92 343.028 204.954 345.446 206.84C347.922 208.727 351.047 210.466 354.82 212.058C358.653 213.65 363.222 215.183 368.528 216.657C375.839 218.721 382.148 221.02 387.454 223.555C392.76 226.091 397.123 228.95 400.543 232.134C404.022 235.259 406.586 238.826 408.237 242.835C409.947 246.785 410.802 251.266 410.802 256.278C410.802 261.525 409.741 266.271 407.618 270.516C405.496 274.761 402.459 278.387 398.509 281.394C394.559 284.401 389.812 286.73 384.27 288.381C378.787 289.973 372.655 290.769 365.875 290.769C359.92 290.769 354.054 289.943 348.276 288.292C342.557 286.642 337.339 284.165 332.622 280.864C327.964 277.562 324.22 273.494 321.39 268.659C318.619 263.765 317.234 258.105 317.234 251.679H334.214C334.214 256.101 335.069 259.904 336.779 263.087C338.489 266.212 340.817 268.806 343.765 270.87C346.772 272.934 350.162 274.467 353.936 275.469C357.768 276.412 361.748 276.884 365.875 276.884C371.83 276.884 376.871 276.058 380.998 274.408C385.125 272.757 388.25 270.398 390.373 267.333C392.554 264.267 393.645 260.641 393.645 256.455ZM467.074 290.769C460.411 290.769 454.368 289.649 448.944 287.408C443.578 285.109 438.95 281.895 435.059 277.768C431.227 273.641 428.279 268.748 426.215 263.087C424.151 257.427 423.12 251.237 423.12 244.515V240.801C423.12 233.018 424.269 226.091 426.569 220.018C428.868 213.886 431.993 208.698 435.943 204.453C439.894 200.208 444.374 196.994 449.386 194.813C454.397 192.631 459.586 191.541 464.951 191.541C471.79 191.541 477.686 192.72 482.639 195.078C487.65 197.436 491.748 200.738 494.932 204.983C498.116 209.169 500.474 214.122 502.007 219.841C503.54 225.501 504.306 231.692 504.306 238.413V245.753H432.848V232.399H487.945V231.161C487.709 226.916 486.825 222.789 485.292 218.78C483.818 214.77 481.46 211.469 478.217 208.875C474.974 206.28 470.552 204.983 464.951 204.983C461.237 204.983 457.817 205.779 454.692 207.371C451.567 208.904 448.885 211.203 446.644 214.269C444.404 217.335 442.665 221.079 441.426 225.501C440.188 229.923 439.569 235.023 439.569 240.801V244.515C439.569 249.055 440.188 253.33 441.426 257.339C442.724 261.289 444.581 264.768 446.998 267.775C449.474 270.782 452.452 273.14 455.93 274.85C459.468 276.56 463.477 277.415 467.958 277.415C473.736 277.415 478.63 276.235 482.639 273.877C486.648 271.519 490.156 268.364 493.163 264.414L503.068 272.285C501.005 275.41 498.381 278.387 495.197 281.217C492.013 284.047 488.093 286.347 483.435 288.116C478.836 289.884 473.382 290.769 467.074 290.769ZM537.053 208.344V289H520.692V193.309H536.611L537.053 208.344ZM566.946 192.779L566.857 207.99C565.501 207.695 564.204 207.518 562.966 207.46C561.787 207.342 560.431 207.283 558.898 207.283C555.124 207.283 551.793 207.872 548.904 209.051C546.015 210.231 543.568 211.881 541.564 214.004C539.559 216.127 537.967 218.662 536.788 221.61C535.668 224.499 534.931 227.683 534.577 231.161L529.978 233.814C529.978 228.036 530.539 222.612 531.659 217.542C532.838 212.471 534.636 207.99 537.053 204.099C539.471 200.149 542.537 197.083 546.251 194.901C550.024 192.661 554.505 191.541 559.694 191.541C560.873 191.541 562.229 191.688 563.762 191.983C565.295 192.219 566.356 192.484 566.946 192.779ZM610.04 274.231L636.218 193.309H652.933L618.53 289H607.564L610.04 274.231ZM588.196 193.309L615.17 274.673L617.027 289H606.06L571.392 193.309H588.196ZM683.734 193.309V289H667.285V193.309H683.734ZM666.047 167.927C666.047 165.274 666.843 163.034 668.434 161.206C670.085 159.378 672.503 158.464 675.686 158.464C678.811 158.464 681.199 159.378 682.85 161.206C684.56 163.034 685.415 165.274 685.415 167.927C685.415 170.463 684.56 172.644 682.85 174.472C681.199 176.241 678.811 177.125 675.686 177.125C672.503 177.125 670.085 176.241 668.434 174.472C666.843 172.644 666.047 170.463 666.047 167.927ZM745.578 277.326C749.469 277.326 753.066 276.53 756.367 274.938C759.669 273.346 762.381 271.165 764.504 268.394C766.626 265.564 767.835 262.35 768.13 258.754H783.695C783.4 264.414 781.484 269.691 777.946 274.584C774.468 279.419 769.898 283.34 764.238 286.347C758.578 289.295 752.358 290.769 745.578 290.769C738.385 290.769 732.106 289.501 726.74 286.966C721.434 284.431 717.012 280.952 713.475 276.53C709.996 272.108 707.372 267.038 705.603 261.319C703.894 255.541 703.039 249.438 703.039 243.012V239.297C703.039 232.871 703.894 226.798 705.603 221.079C707.372 215.301 709.996 210.201 713.475 205.779C717.012 201.357 721.434 197.879 726.74 195.343C732.106 192.808 738.385 191.541 745.578 191.541C753.066 191.541 759.61 193.073 765.211 196.139C770.812 199.146 775.205 203.273 778.389 208.521C781.631 213.709 783.4 219.605 783.695 226.209H768.13C767.835 222.258 766.715 218.691 764.769 215.507C762.882 212.324 760.288 209.788 756.986 207.902C753.744 205.956 749.941 204.983 745.578 204.983C740.566 204.983 736.351 205.986 732.931 207.99C729.57 209.936 726.888 212.589 724.883 215.95C722.937 219.251 721.522 222.936 720.638 227.004C719.813 231.014 719.4 235.111 719.4 239.297V243.012C719.4 247.198 719.813 251.325 720.638 255.393C721.463 259.461 722.849 263.146 724.795 266.448C726.799 269.75 729.482 272.403 732.843 274.408C736.262 276.353 740.507 277.326 745.578 277.326ZM839.082 290.769C832.42 290.769 826.377 289.649 820.952 287.408C815.587 285.109 810.959 281.895 807.067 277.768C803.235 273.641 800.287 268.748 798.224 263.087C796.16 257.427 795.128 251.237 795.128 244.515V240.801C795.128 233.018 796.278 226.091 798.577 220.018C800.877 213.886 804.002 208.698 807.952 204.453C811.902 200.208 816.383 196.994 821.395 194.813C826.406 192.631 831.594 191.541 836.96 191.541C843.799 191.541 849.695 192.72 854.647 195.078C859.659 197.436 863.757 200.738 866.94 204.983C870.124 209.169 872.483 214.122 874.016 219.841C875.548 225.501 876.315 231.692 876.315 238.413V245.753H804.856V232.399H859.954V231.161C859.718 226.916 858.834 222.789 857.301 218.78C855.827 214.77 853.468 211.469 850.226 208.875C846.983 206.28 842.561 204.983 836.96 204.983C833.245 204.983 829.826 205.779 826.701 207.371C823.576 208.904 820.893 211.203 818.653 214.269C816.412 217.335 814.673 221.079 813.435 225.501C812.197 229.923 811.578 235.023 811.578 240.801V244.515C811.578 249.055 812.197 253.33 813.435 257.339C814.732 261.289 816.589 264.768 819.007 267.775C821.483 270.782 824.46 273.14 827.939 274.85C831.477 276.56 835.486 277.415 839.967 277.415C845.745 277.415 850.638 276.235 854.647 273.877C858.657 271.519 862.165 268.364 865.172 264.414L875.077 272.285C873.013 275.41 870.39 278.387 867.206 281.217C864.022 284.047 860.101 286.347 855.443 288.116C850.845 289.884 845.391 290.769 839.082 290.769ZM948.417 263.618C948.417 261.26 947.887 259.078 946.825 257.074C945.823 255.01 943.73 253.153 940.546 251.502C937.421 249.792 932.705 248.318 926.396 247.08C921.09 245.96 916.285 244.633 911.981 243.1C907.735 241.567 904.109 239.71 901.103 237.529C898.155 235.347 895.885 232.782 894.293 229.835C892.701 226.887 891.905 223.437 891.905 219.487C891.905 215.714 892.73 212.147 894.381 208.786C896.091 205.425 898.479 202.448 901.545 199.854C904.67 197.26 908.413 195.226 912.776 193.752C917.139 192.278 922.004 191.541 927.369 191.541C935.034 191.541 941.578 192.897 947.002 195.609C952.426 198.321 956.583 201.947 959.472 206.487C962.361 210.968 963.806 215.95 963.806 221.433H947.444C947.444 218.78 946.648 216.215 945.057 213.739C943.524 211.203 941.254 209.11 938.247 207.46C935.299 205.809 931.673 204.983 927.369 204.983C922.829 204.983 919.144 205.691 916.314 207.106C913.543 208.462 911.509 210.201 910.212 212.324C908.974 214.446 908.355 216.687 908.355 219.045C908.355 220.814 908.649 222.406 909.239 223.821C909.887 225.177 911.008 226.444 912.6 227.624C914.191 228.744 916.432 229.805 919.321 230.807C922.21 231.81 925.895 232.812 930.376 233.814C938.217 235.583 944.673 237.706 949.744 240.182C954.814 242.658 958.588 245.695 961.064 249.291C963.54 252.888 964.778 257.251 964.778 262.38C964.778 266.566 963.894 270.398 962.125 273.877C960.415 277.356 957.91 280.362 954.608 282.898C951.365 285.374 947.474 287.32 942.934 288.735C938.453 290.091 933.412 290.769 927.811 290.769C919.38 290.769 912.246 289.265 906.409 286.258C900.572 283.251 896.15 279.36 893.143 274.584C890.136 269.809 888.633 264.768 888.633 259.461H905.082C905.318 263.942 906.615 267.509 908.974 270.163C911.332 272.757 914.221 274.614 917.641 275.734C921.06 276.795 924.45 277.326 927.811 277.326C932.292 277.326 936.036 276.737 939.043 275.557C942.109 274.378 944.438 272.757 946.029 270.693C947.621 268.63 948.417 266.271 948.417 263.618Z" fill="black" fill-opacity="0.02"/>
</svg>
