<svg width="965" height="291" viewBox="0 0 965 291" fill="none" xmlns="http://www.w3.org/2000/svg">
<path d="M86.2278 121.957V135.842H18.0415V121.957H86.2278ZM21.4906 7.07505V135.842H4.42197V7.07505H21.4906ZM77.207 62.4377V76.3226H18.0415V62.4377H77.207ZM85.3434 7.07505V21.0484H18.0415V7.07505H85.3434ZM113.226 40.1511L134.186 74.996L155.412 40.1511H174.603L143.295 87.3774L175.576 135.842H156.65L134.54 99.9357L112.43 135.842H93.4161L125.608 87.3774L94.3889 40.1511H113.226ZM205.67 58.5464V172.632H189.22V40.1511H204.255L205.67 58.5464ZM270.141 87.2005V89.0577C270.141 96.0149 269.316 102.471 267.665 108.426C266.014 114.322 263.597 119.451 260.413 123.814C257.288 128.177 253.426 131.567 248.828 133.985C244.229 136.402 238.952 137.611 232.997 137.611C226.924 137.611 221.559 136.608 216.901 134.604C212.243 132.599 208.293 129.681 205.05 125.848C201.808 122.016 199.214 117.417 197.268 112.052C195.381 106.687 194.084 100.643 193.377 93.9219V84.0167C194.084 76.9416 195.411 70.6035 197.356 65.0024C199.302 59.4013 201.867 54.6256 205.05 50.6753C208.293 46.6661 212.214 43.6297 216.813 41.5661C221.412 39.4436 226.718 38.3824 232.732 38.3824C238.746 38.3824 244.081 39.5615 248.739 41.9199C253.397 44.2193 257.318 47.521 260.502 51.825C263.685 56.1291 266.073 61.288 267.665 67.3018C269.316 73.2567 270.141 79.8896 270.141 87.2005ZM253.692 89.0577V87.2005C253.692 82.4248 253.191 77.9439 252.188 73.7578C251.186 69.5128 249.624 65.7983 247.501 62.6146C245.437 59.3718 242.784 56.8366 239.542 55.0088C236.299 53.1221 232.437 52.1788 227.956 52.1788C223.829 52.1788 220.232 52.8863 217.167 54.3013C214.16 55.7163 211.595 57.6325 209.472 60.0498C207.35 62.4082 205.611 65.1203 204.255 68.1862C202.957 71.1931 201.985 74.3179 201.336 77.5607V100.466C202.515 104.593 204.166 108.485 206.289 112.14C208.411 115.737 211.241 118.655 214.779 120.896C218.316 123.077 222.768 124.168 228.133 124.168C232.555 124.168 236.358 123.254 239.542 121.426C242.784 119.54 245.437 116.975 247.501 113.732C249.624 110.489 251.186 106.775 252.188 102.589C253.191 98.3438 253.692 93.8334 253.692 89.0577ZM306.072 -4.19617e-05V135.842H289.623V-4.19617e-05H306.072ZM325.288 89.0577V87.0236C325.288 80.1254 326.29 73.7284 328.295 67.8324C330.3 61.8776 333.189 56.7186 336.962 52.3557C340.735 47.9337 345.305 44.5141 350.67 42.0968C356.035 39.6205 362.049 38.3824 368.712 38.3824C375.433 38.3824 381.476 39.6205 386.841 42.0968C392.266 44.5141 396.865 47.9337 400.638 52.3557C404.47 56.7186 407.389 61.8776 409.393 67.8324C411.398 73.7284 412.4 80.1254 412.4 87.0236V89.0577C412.4 95.9559 411.398 102.353 409.393 108.249C407.389 114.145 404.47 119.304 400.638 123.726C396.865 128.089 392.295 131.508 386.93 133.985C381.624 136.402 375.61 137.611 368.888 137.611C362.167 137.611 356.124 136.402 350.758 133.985C345.393 131.508 340.794 128.089 336.962 123.726C333.189 119.304 330.3 114.145 328.295 108.249C326.29 102.353 325.288 95.9559 325.288 89.0577ZM341.649 87.0236V89.0577C341.649 93.8334 342.209 98.3438 343.33 102.589C344.45 106.775 346.13 110.489 348.371 113.732C350.67 116.975 353.53 119.54 356.949 121.426C360.369 123.254 364.349 124.168 368.888 124.168C373.369 124.168 377.29 123.254 380.651 121.426C384.07 119.54 386.9 116.975 389.141 113.732C391.381 110.489 393.062 106.775 394.182 102.589C395.361 98.3438 395.951 93.8334 395.951 89.0577V87.0236C395.951 82.3069 395.361 77.8555 394.182 73.6694C393.062 69.4243 391.352 65.6804 389.052 62.4377C386.812 59.136 383.982 56.5418 380.562 54.6551C377.202 52.7684 373.251 51.825 368.712 51.825C364.231 51.825 360.28 52.7684 356.861 54.6551C353.5 56.5418 350.67 59.136 348.371 62.4377C346.13 65.6804 344.45 69.4243 343.33 73.6694C342.209 77.8555 341.649 82.3069 341.649 87.0236ZM446.562 55.1857V135.842H430.201V40.1511H446.12L446.562 55.1857ZM476.455 39.6205L476.366 54.832C475.01 54.5372 473.713 54.3603 472.475 54.3013C471.296 54.1834 469.94 54.1244 468.407 54.1244C464.633 54.1244 461.302 54.714 458.413 55.8932C455.524 57.0724 453.077 58.7233 451.073 60.8458C449.068 62.9683 447.476 65.5036 446.297 68.4515C445.177 71.3405 444.44 74.5243 444.086 78.0029L439.487 80.656C439.487 74.8781 440.047 69.4538 441.168 64.3833C442.347 59.3128 444.145 54.832 446.562 50.9406C448.98 46.9904 452.046 43.9245 455.76 41.743C459.533 39.5026 464.014 38.3824 469.203 38.3824C470.382 38.3824 471.738 38.5298 473.271 38.8245C474.804 39.0604 475.865 39.3257 476.455 39.6205ZM526.801 137.611C520.139 137.611 514.095 136.49 508.671 134.25C503.306 131.95 498.678 128.737 494.786 124.61C490.954 120.483 488.006 115.589 485.942 109.929C483.879 104.269 482.847 98.0785 482.847 91.3571V87.6427C482.847 79.8601 483.997 72.9324 486.296 66.8596C488.596 60.7279 491.72 55.5395 495.671 51.2944C499.621 47.0493 504.102 43.8361 509.113 41.6546C514.125 39.4731 519.313 38.3824 524.679 38.3824C531.518 38.3824 537.414 39.5615 542.366 41.9199C547.378 44.2783 551.475 47.58 554.659 51.825C557.843 56.0111 560.201 60.9637 561.734 66.6827C563.267 72.3428 564.034 78.5335 564.034 85.2549V92.5953H492.575V79.241H547.673V78.0029C547.437 73.7578 546.552 69.6307 545.019 65.6215C543.545 61.6123 541.187 58.3105 537.944 55.7163C534.702 53.1221 530.28 51.825 524.679 51.825C520.964 51.825 517.544 52.621 514.42 54.2129C511.295 55.7458 508.612 58.0452 506.372 61.1111C504.131 64.177 502.392 67.9209 501.154 72.3428C499.916 76.7647 499.297 81.8647 499.297 87.6427V91.3571C499.297 95.897 499.916 100.172 501.154 104.181C502.451 108.131 504.308 111.61 506.725 114.617C509.202 117.623 512.179 119.982 515.658 121.692C519.195 123.401 523.205 124.256 527.685 124.256C533.463 124.256 538.357 123.077 542.366 120.719C546.375 118.36 549.884 115.206 552.89 111.256L562.796 119.127C560.732 122.252 558.108 125.229 554.925 128.059C551.741 130.889 547.82 133.189 543.162 134.957C538.563 136.726 533.11 137.611 526.801 137.611ZM103.562 220.39V228.527C103.562 238.196 102.353 246.863 99.9358 254.528C97.5184 262.192 94.0398 268.707 89.5 274.073C84.9601 279.438 79.5064 283.535 73.1388 286.366C66.8302 289.196 59.7551 290.611 51.9136 290.611C44.3078 290.611 37.3212 289.196 30.9536 286.366C24.645 283.535 19.1618 279.438 14.504 274.073C9.90517 268.707 6.33814 262.192 3.8029 254.528C1.26766 246.863 3.50401e-05 238.196 3.50401e-05 228.527V220.39C3.50401e-05 210.721 1.23818 202.083 3.71446 194.478C6.2497 186.813 9.81673 180.298 14.4155 174.933C19.0144 169.509 24.4681 165.381 30.7767 162.551C37.1443 159.721 44.1309 158.306 51.7367 158.306C59.5782 158.306 66.6533 159.721 72.962 162.551C79.3295 165.381 84.7833 169.509 89.3231 174.933C93.9219 180.298 97.43 186.813 99.8473 194.478C102.324 202.083 103.562 210.721 103.562 220.39ZM86.67 228.527V220.213C86.67 212.549 85.874 205.768 84.2821 199.872C82.7492 193.977 80.4792 189.024 77.4723 185.015C74.4654 181.006 70.7805 177.969 66.4175 175.906C62.1135 173.842 57.2199 172.81 51.7367 172.81C46.4304 172.81 41.6252 173.842 37.3212 175.906C33.0761 177.969 29.4206 181.006 26.3548 185.015C23.3479 189.024 21.019 193.977 19.3681 199.872C17.7173 205.768 16.8918 212.549 16.8918 220.213V228.527C16.8918 236.25 17.7173 243.09 19.3681 249.044C21.019 254.94 23.3773 259.922 26.4432 263.991C29.568 268 33.253 271.036 37.498 273.1C41.8021 275.163 46.6072 276.195 51.9136 276.195C57.4557 276.195 62.3788 275.163 66.6828 273.1C70.9868 271.036 74.6128 268 77.5608 263.991C80.5677 259.922 82.8376 254.94 84.3706 249.044C85.9035 243.09 86.67 236.25 86.67 228.527ZM182.474 266.732V193.151H198.923V288.842H183.27L182.474 266.732ZM185.569 246.568L192.379 246.391C192.379 252.759 191.701 258.655 190.345 264.079C189.048 269.444 186.925 274.102 183.977 278.052C181.029 282.003 177.168 285.098 172.392 287.338C167.616 289.52 161.809 290.611 154.969 290.611C150.312 290.611 146.037 289.933 142.146 288.576C138.313 287.22 135.012 285.127 132.241 282.297C129.47 279.467 127.318 275.782 125.785 271.242C124.311 266.703 123.574 261.249 123.574 254.881V193.151H139.935V255.058C139.935 259.362 140.406 262.929 141.35 265.759C142.352 268.53 143.679 270.741 145.33 272.392C147.039 273.984 148.926 275.104 150.99 275.753C153.112 276.401 155.294 276.726 157.534 276.726C164.491 276.726 170.004 275.399 174.072 272.746C178.14 270.034 181.059 266.408 182.828 261.868C184.655 257.269 185.569 252.169 185.569 246.568ZM237.507 208.186V288.842H221.146V193.151H237.065L237.507 208.186ZM267.4 192.62L267.311 207.832C265.955 207.537 264.658 207.36 263.42 207.301C262.241 207.183 260.885 207.124 259.352 207.124C255.578 207.124 252.247 207.714 249.358 208.893C246.469 210.072 244.022 211.723 242.018 213.846C240.013 215.968 238.421 218.504 237.242 221.452C236.122 224.341 235.385 227.524 235.031 231.003L230.432 233.656C230.432 227.878 230.992 222.454 232.113 217.383C233.292 212.313 235.09 207.832 237.507 203.941C239.925 199.99 242.991 196.925 246.705 194.743C250.478 192.503 254.959 191.382 260.148 191.382C261.327 191.382 262.683 191.53 264.216 191.825C265.749 192.06 266.81 192.326 267.4 192.62ZM393.121 256.296C393.121 253.289 392.649 250.636 391.706 248.337C390.821 245.979 389.229 243.856 386.93 241.969C384.689 240.083 381.565 238.284 377.555 236.575C373.605 234.865 368.594 233.125 362.521 231.357C356.153 229.47 350.405 227.377 345.275 225.077C340.146 222.719 335.753 220.036 332.098 217.03C328.442 214.023 325.642 210.574 323.696 206.682C321.751 202.791 320.778 198.34 320.778 193.328C320.778 188.316 321.81 183.688 323.873 179.443C325.937 175.198 328.885 171.513 332.717 168.388C336.608 165.204 341.237 162.728 346.602 160.959C351.967 159.191 357.952 158.306 364.555 158.306C374.224 158.306 382.42 160.163 389.141 163.878C395.921 167.533 401.08 172.339 404.618 178.293C408.155 184.189 409.924 190.498 409.924 197.219H392.944C392.944 192.385 391.912 188.11 389.848 184.396C387.785 180.622 384.66 177.674 380.474 175.552C376.288 173.37 370.981 172.28 364.555 172.28C358.482 172.28 353.471 173.193 349.52 175.021C345.57 176.849 342.622 179.325 340.677 182.45C338.79 185.575 337.846 189.142 337.846 193.151C337.846 195.863 338.407 198.34 339.527 200.58C340.706 202.761 342.504 204.796 344.922 206.682C347.398 208.569 350.523 210.308 354.296 211.9C358.128 213.492 362.698 215.025 368.004 216.499C375.315 218.563 381.624 220.862 386.93 223.397C392.236 225.932 396.599 228.792 400.019 231.976C403.497 235.101 406.062 238.668 407.713 242.677C409.423 246.627 410.278 251.108 410.278 256.119C410.278 261.367 409.216 266.113 407.094 270.358C404.971 274.603 401.935 278.229 397.985 281.236C394.035 284.243 389.288 286.572 383.746 288.223C378.263 289.815 372.131 290.611 365.351 290.611C359.396 290.611 353.53 289.785 347.752 288.134C342.033 286.483 336.815 284.007 332.098 280.705C327.44 277.404 323.696 273.336 320.866 268.501C318.095 263.607 316.71 257.947 316.71 251.521H333.69C333.69 255.943 334.545 259.745 336.255 262.929C337.964 266.054 340.293 268.648 343.241 270.712C346.248 272.775 349.638 274.308 353.412 275.311C357.244 276.254 361.224 276.726 365.351 276.726C371.306 276.726 376.347 275.9 380.474 274.249C384.601 272.599 387.726 270.24 389.848 267.174C392.03 264.108 393.121 260.482 393.121 256.296ZM466.55 290.611C459.887 290.611 453.844 289.49 448.42 287.25C443.054 284.95 438.426 281.737 434.535 277.61C430.702 273.483 427.754 268.589 425.691 262.929C423.627 257.269 422.595 251.078 422.595 244.357V240.643C422.595 232.86 423.745 225.932 426.045 219.86C428.344 213.728 431.469 208.539 435.419 204.294C439.369 200.049 443.85 196.836 448.862 194.655C453.873 192.473 459.062 191.382 464.427 191.382C471.266 191.382 477.162 192.562 482.115 194.92C487.126 197.278 491.224 200.58 494.408 204.825C497.592 209.011 499.95 213.964 501.483 219.683C503.016 225.343 503.782 231.534 503.782 238.255V245.595H432.324V232.241H487.421V231.003C487.185 226.758 486.301 222.631 484.768 218.621C483.294 214.612 480.936 211.311 477.693 208.716C474.45 206.122 470.028 204.825 464.427 204.825C460.713 204.825 457.293 205.621 454.168 207.213C451.043 208.746 448.361 211.045 446.12 214.111C443.88 217.177 442.14 220.921 440.902 225.343C439.664 229.765 439.045 234.865 439.045 240.643V244.357C439.045 248.897 439.664 253.172 440.902 257.181C442.199 261.131 444.057 264.61 446.474 267.617C448.95 270.623 451.928 272.982 455.406 274.692C458.944 276.401 462.953 277.256 467.434 277.256C473.212 277.256 478.106 276.077 482.115 273.719C486.124 271.36 489.632 268.206 492.639 264.256L502.544 272.127C500.481 275.252 497.857 278.229 494.673 281.059C491.489 283.889 487.568 286.189 482.911 287.957C478.312 289.726 472.858 290.611 466.55 290.611ZM536.529 208.186V288.842H520.168V193.151H536.087L536.529 208.186ZM566.422 192.62L566.333 207.832C564.977 207.537 563.68 207.36 562.442 207.301C561.263 207.183 559.907 207.124 558.374 207.124C554.6 207.124 551.269 207.714 548.38 208.893C545.491 210.072 543.044 211.723 541.04 213.846C539.035 215.968 537.443 218.504 536.264 221.452C535.144 224.341 534.407 227.524 534.053 231.003L529.454 233.656C529.454 227.878 530.014 222.454 531.135 217.383C532.314 212.313 534.112 207.832 536.529 203.941C538.947 199.99 542.013 196.925 545.727 194.743C549.5 192.503 553.981 191.382 559.17 191.382C560.349 191.382 561.705 191.53 563.238 191.825C564.771 192.06 565.832 192.326 566.422 192.62ZM609.516 274.073L635.694 193.151H652.409L618.006 288.842H607.04L609.516 274.073ZM587.672 193.151L614.645 274.515L616.503 288.842H605.536L570.868 193.151H587.672ZM683.21 193.151V288.842H666.761V193.151H683.21ZM665.522 167.769C665.522 165.116 666.318 162.876 667.91 161.048C669.561 159.22 671.978 158.306 675.162 158.306C678.287 158.306 680.675 159.22 682.326 161.048C684.036 162.876 684.891 165.116 684.891 167.769C684.891 170.304 684.036 172.486 682.326 174.314C680.675 176.082 678.287 176.967 675.162 176.967C671.978 176.967 669.561 176.082 667.91 174.314C666.318 172.486 665.522 170.304 665.522 167.769ZM745.054 277.168C748.945 277.168 752.541 276.372 755.843 274.78C759.145 273.188 761.857 271.007 763.979 268.236C766.102 265.406 767.311 262.192 767.605 258.596H783.171C782.876 264.256 780.96 269.533 777.422 274.426C773.944 279.261 769.374 283.182 763.714 286.189C758.054 289.137 751.834 290.611 745.054 290.611C737.861 290.611 731.581 289.343 726.216 286.808C720.91 284.272 716.488 280.794 712.95 276.372C709.472 271.95 706.848 266.88 705.079 261.16C703.37 255.382 702.515 249.28 702.515 242.854V239.139C702.515 232.713 703.37 226.64 705.079 220.921C706.848 215.143 709.472 210.043 712.95 205.621C716.488 201.199 720.91 197.72 726.216 195.185C731.581 192.65 737.861 191.382 745.054 191.382C752.541 191.382 759.086 192.915 764.687 195.981C770.288 198.988 774.681 203.115 777.864 208.363C781.107 213.551 782.876 219.447 783.171 226.05H767.605C767.311 222.1 766.19 218.533 764.245 215.349C762.358 212.165 759.764 209.63 756.462 207.744C753.219 205.798 749.417 204.825 745.054 204.825C740.042 204.825 735.827 205.827 732.407 207.832C729.046 209.778 726.364 212.431 724.359 215.791C722.413 219.093 720.998 222.778 720.114 226.846C719.288 230.855 718.876 234.953 718.876 239.139V242.854C718.876 247.04 719.288 251.167 720.114 255.235C720.939 259.303 722.325 262.988 724.271 266.29C726.275 269.592 728.958 272.245 732.318 274.249C735.738 276.195 739.983 277.168 745.054 277.168ZM838.558 290.611C831.896 290.611 825.852 289.49 820.428 287.25C815.063 284.95 810.435 281.737 806.543 277.61C802.711 273.483 799.763 268.589 797.699 262.929C795.636 257.269 794.604 251.078 794.604 244.357V240.643C794.604 232.86 795.754 225.932 798.053 219.86C800.353 213.728 803.477 208.539 807.428 204.294C811.378 200.049 815.859 196.836 820.87 194.655C825.882 192.473 831.07 191.382 836.436 191.382C843.275 191.382 849.171 192.562 854.123 194.92C859.135 197.278 863.233 200.58 866.416 204.825C869.6 209.011 871.958 213.964 873.491 219.683C875.024 225.343 875.791 231.534 875.791 238.255V245.595H804.332V232.241H859.43V231.003C859.194 226.758 858.309 222.631 856.776 218.621C855.302 214.612 852.944 211.311 849.701 208.716C846.459 206.122 842.037 204.825 836.436 204.825C832.721 204.825 829.302 205.621 826.177 207.213C823.052 208.746 820.369 211.045 818.129 214.111C815.888 217.177 814.149 220.921 812.911 225.343C811.673 229.765 811.054 234.865 811.054 240.643V244.357C811.054 248.897 811.673 253.172 812.911 257.181C814.208 261.131 816.065 264.61 818.483 267.617C820.959 270.623 823.936 272.982 827.415 274.692C830.952 276.401 834.962 277.256 839.442 277.256C845.22 277.256 850.114 276.077 854.123 273.719C858.133 271.36 861.641 268.206 864.648 264.256L874.553 272.127C872.489 275.252 869.865 278.229 866.682 281.059C863.498 283.889 859.577 286.189 854.919 287.957C850.32 289.726 844.867 290.611 838.558 290.611ZM947.893 263.46C947.893 261.102 947.362 258.92 946.301 256.915C945.299 254.852 943.206 252.995 940.022 251.344C936.897 249.634 932.18 248.16 925.872 246.922C920.566 245.802 915.76 244.475 911.456 242.942C907.211 241.409 903.585 239.552 900.578 237.37C897.63 235.189 895.36 232.624 893.769 229.676C892.177 226.728 891.381 223.279 891.381 219.329C891.381 215.556 892.206 211.989 893.857 208.628C895.567 205.267 897.955 202.29 901.021 199.696C904.145 197.101 907.889 195.067 912.252 193.593C916.615 192.119 921.479 191.382 926.845 191.382C934.509 191.382 941.054 192.738 946.478 195.451C951.902 198.163 956.059 201.789 958.948 206.328C961.837 210.809 963.281 215.791 963.281 221.275H946.92C946.92 218.621 946.124 216.057 944.532 213.58C942.999 211.045 940.73 208.952 937.723 207.301C934.775 205.65 931.149 204.825 926.845 204.825C922.305 204.825 918.62 205.533 915.79 206.948C913.019 208.304 910.985 210.043 909.688 212.165C908.449 214.288 907.83 216.528 907.83 218.887C907.83 220.656 908.125 222.247 908.715 223.662C909.363 225.019 910.484 226.286 912.075 227.465C913.667 228.586 915.908 229.647 918.797 230.649C921.686 231.651 925.371 232.654 929.852 233.656C937.693 235.425 944.149 237.547 949.22 240.024C954.29 242.5 958.064 245.536 960.54 249.133C963.016 252.729 964.254 257.092 964.254 262.222C964.254 266.408 963.37 270.24 961.601 273.719C959.891 277.197 957.386 280.204 954.084 282.74C950.841 285.216 946.95 287.161 942.41 288.576C937.929 289.933 932.888 290.611 927.287 290.611C918.856 290.611 911.722 289.107 905.885 286.1C900.048 283.093 895.626 279.202 892.619 274.426C889.612 269.651 888.109 264.61 888.109 259.303H904.558C904.794 263.784 906.091 267.351 908.449 270.004C910.808 272.599 913.697 274.456 917.116 275.576C920.536 276.637 923.926 277.168 927.287 277.168C931.768 277.168 935.512 276.578 938.519 275.399C941.584 274.22 943.913 272.599 945.505 270.535C947.097 268.471 947.893 266.113 947.893 263.46Z" fill="black" fill-opacity="0.1"/>
</svg>
