<svg width="1312" height="127" viewBox="0 0 1312 127" fill="none" xmlns="http://www.w3.org/2000/svg">
<path d="M1290.03 93.3378C1290.03 90.7946 1289.62 88.5339 1288.81 86.5558C1288.05 84.5777 1286.69 82.7691 1284.71 81.1301C1282.73 79.4912 1279.94 77.9087 1276.34 76.3827C1272.79 74.8002 1268.26 73.1895 1262.74 71.5505C1256.69 69.742 1251.11 67.7356 1246 65.5315C1240.94 63.2708 1236.52 60.671 1232.74 57.7321C1228.97 54.7367 1226.03 51.3174 1223.94 47.4743C1221.85 43.5746 1220.8 39.0815 1220.8 33.995C1220.8 28.965 1221.88 24.3871 1224.03 20.2613C1226.23 16.1356 1229.34 12.575 1233.36 9.57963C1237.42 6.52771 1242.22 4.18226 1247.74 2.54326C1253.26 0.847755 1259.37 0 1266.05 0C1275.47 0 1283.58 1.69551 1290.38 5.08653C1297.24 8.47755 1302.5 13.0272 1306.16 18.7354C1309.88 24.4436 1311.74 30.7452 1311.74 37.6403H1290.03C1290.03 33.5711 1289.13 29.9823 1287.33 26.8738C1285.58 23.7089 1282.91 21.2221 1279.3 19.4136C1275.76 17.605 1271.25 16.7008 1265.79 16.7008C1260.62 16.7008 1256.32 17.4638 1252.89 18.9897C1249.46 20.5157 1246.9 22.5785 1245.21 25.1783C1243.53 27.7781 1242.68 30.717 1242.68 33.995C1242.68 36.3122 1243.24 38.4316 1244.34 40.3531C1245.45 42.2182 1247.13 43.9702 1249.4 45.6092C1251.66 47.1917 1254.51 48.6894 1257.94 50.1023C1261.37 51.5152 1265.41 52.8717 1270.06 54.1715C1277.1 56.2062 1283.23 58.4668 1288.46 60.9536C1293.69 63.3838 1298.05 66.1531 1301.54 69.2616C1305.02 72.37 1307.64 75.9023 1309.38 79.8585C1311.13 83.7582 1312 88.1948 1312 93.1683C1312 98.3678 1310.92 103.059 1308.77 107.241C1306.62 111.367 1303.54 114.899 1299.53 117.838C1295.58 120.72 1290.81 122.953 1285.23 124.535C1279.71 126.061 1273.55 126.824 1266.75 126.824C1260.65 126.824 1254.63 126.033 1248.7 124.45C1242.83 122.868 1237.48 120.466 1232.66 117.245C1227.83 113.967 1224 109.897 1221.15 105.037C1218.3 100.12 1216.88 94.3834 1216.88 87.8274H1238.76C1238.76 91.8401 1239.46 95.2594 1240.85 98.0853C1242.31 100.911 1244.31 103.228 1246.87 105.037C1249.43 106.789 1252.39 108.089 1255.76 108.937C1259.19 109.784 1262.85 110.208 1266.75 110.208C1271.86 110.208 1276.14 109.502 1279.57 108.089C1283.05 106.676 1285.67 104.698 1287.41 102.154C1289.16 99.6112 1290.03 96.6723 1290.03 93.3378Z" fill="white" fill-opacity="0.05"/>
<path d="M1129.74 1.70312L1159.21 60.6221L1188.68 1.70312H1212.92L1170.19 79.6966V125.136H1148.14V79.6966L1105.41 1.70312H1129.74Z" fill="white" fill-opacity="0.05"/>
<path d="M1060.73 18.1496L1022.8 125.136H999.871L1047.65 1.70312H1062.3L1060.73 18.1496ZM1092.47 125.136L1054.45 18.1496L1052.8 1.70312H1067.53L1115.48 125.136H1092.47ZM1090.64 79.3575V96.2278H1021.58V79.3575H1090.64Z" fill="white" fill-opacity="0.05"/>
<path d="M891.809 97.4147L917.094 1.70312H930.347L928.865 26.3728L901.836 125.136H888.06L891.809 97.4147ZM872.889 1.70312L893.379 96.6517L895.21 125.136H880.562L851.179 1.70312H872.889ZM959.032 96.3974L979.26 1.70312H1001.06L971.675 125.136H957.027L959.032 96.3974ZM935.491 1.70312L960.514 97.669L964.176 125.136H950.4L923.808 26.3728L922.413 1.70312H935.491Z" fill="white" fill-opacity="0.05"/>
<path d="M819.233 53.2466V70.117H751.835V53.2466H819.233ZM757.241 1.70312V125.136H735.357V1.70312H757.241ZM836.06 1.70312V125.136H814.263V1.70312H836.06Z" fill="white" fill-opacity="0.05"/>
<path d="M713.258 62.0557V109.191C711.456 111.508 708.637 114.051 704.8 116.821C701.022 119.533 695.994 121.879 689.717 123.857C683.439 125.835 675.621 126.824 666.263 126.824C658.299 126.824 651.005 125.524 644.378 122.924C637.752 120.268 632.026 116.397 627.202 111.31C622.435 106.224 618.744 100.035 616.129 92.7444C613.513 85.3972 612.205 77.0327 612.205 67.6508V59.0885C612.205 49.7632 613.397 41.4552 615.78 34.1645C618.221 26.8173 621.709 20.6004 626.243 15.5139C630.777 10.4274 636.24 6.58423 642.634 3.98445C649.086 1.32815 656.381 0 664.519 0C674.923 0 683.526 1.69551 690.327 5.08653C697.186 8.42103 702.475 13.0554 706.195 18.9897C709.916 24.924 712.27 31.706 713.258 39.3358H691.809C691.112 35.0405 689.746 31.1974 687.711 27.8064C685.735 24.4153 682.887 21.759 679.167 19.8375C675.505 17.8594 670.738 16.8703 664.868 16.8703C659.811 16.8703 655.364 17.8029 651.528 19.6679C647.691 21.533 644.494 24.2741 641.937 27.8911C639.437 31.5082 637.548 35.9166 636.269 41.1161C634.991 46.3157 634.351 52.25 634.351 58.919V67.6508C634.351 74.4329 635.078 80.452 636.531 85.708C638.042 90.9641 640.193 95.4007 642.983 99.0178C645.831 102.635 649.29 105.376 653.359 107.241C657.427 109.05 662.019 109.954 667.135 109.954C672.133 109.954 676.231 109.558 679.428 108.767C682.625 107.919 685.154 106.93 687.014 105.8C688.932 104.613 690.414 103.483 691.46 102.409V77.9087H665.042V62.0557H713.258Z" fill="white" fill-opacity="0.05"/>
<path d="M590.722 1.70312V125.136H568.837V1.70312H590.722Z" fill="white" fill-opacity="0.05"/>
<path d="M526.594 53.2466V70.117H459.197V53.2466H526.594ZM464.602 1.70312V125.136H442.718V1.70312H464.602ZM543.422 1.70312V125.136H521.624V1.70312H543.422Z" fill="white" fill-opacity="0.05"/>
<path d="M426.99 108.266V125.136H359.593V108.266H426.99ZM365.783 1.70312V125.136H343.898V1.70312H365.783ZM418.184 53.2466V69.8626H359.593V53.2466H418.184ZM426.554 1.70312V18.6582H359.593V1.70312H426.554Z" fill="white" fill-opacity="0.05"/>
<path d="M280.827 69.354H248.48L248.305 53.8401H276.555C281.321 53.8401 285.361 53.1619 288.674 51.8054C292.045 50.3925 294.603 48.3862 296.347 45.7864C298.091 43.1301 298.962 39.9369 298.962 36.2068C298.962 32.081 298.149 28.7183 296.521 26.1185C294.894 23.5187 292.394 21.6254 289.023 20.4385C285.71 19.2517 281.466 18.6582 276.293 18.6582H255.106V125.136H233.222V1.70312H276.293C283.268 1.70312 289.488 2.35307 294.952 3.65296C300.474 4.95285 305.153 6.98746 308.989 9.7568C312.884 12.4696 315.819 15.9172 317.795 20.0994C319.83 24.2817 320.847 29.2552 320.847 35.0199C320.847 40.1064 319.597 44.7691 317.098 49.0079C314.598 53.1901 310.907 56.6094 306.025 59.2657C301.142 61.922 295.068 63.5045 287.802 64.0131L280.827 69.354ZM279.868 125.136H241.592L251.444 108.266H279.868C284.809 108.266 288.936 107.475 292.249 105.892C295.562 104.253 298.032 102.021 299.66 99.1949C301.346 96.3126 302.188 92.9498 302.188 89.1067C302.188 85.094 301.462 81.6182 300.009 78.6793C298.556 75.6839 296.26 73.3949 293.121 71.8125C289.982 70.1735 285.884 69.354 280.827 69.354H256.24L256.414 53.8401H288.413L293.382 59.6896C300.357 59.9156 306.083 61.4133 310.559 64.1827C315.093 66.952 318.464 70.5408 320.673 74.9492C322.881 79.3575 323.986 84.1049 323.986 89.1914C323.986 97.0473 322.213 103.632 318.667 108.944C315.18 114.257 310.152 118.298 303.584 121.067C297.015 123.78 289.11 125.136 279.868 125.136Z" fill="white" fill-opacity="0.05"/>
<path d="M189.76 1.70312H211.557V84.1897C211.557 93.5715 209.465 101.427 205.28 107.757C201.095 114.087 195.398 118.863 188.191 122.084C181.041 125.249 173.049 126.832 164.213 126.832C155.088 126.832 146.95 125.249 139.8 122.084C132.651 118.863 127.013 114.087 122.886 107.757C118.817 101.427 116.782 93.5715 116.782 84.1897V1.70312H138.58V84.1897C138.58 90.124 139.626 95.0127 141.719 98.8558C143.811 102.642 146.776 105.44 150.612 107.249C154.448 109.057 158.982 109.961 164.213 109.961C169.445 109.961 173.95 109.057 177.728 107.249C181.564 105.44 184.529 102.642 186.621 98.8558C188.714 95.0127 189.76 90.124 189.76 84.1897V1.70312Z" fill="white" fill-opacity="0.05"/>
<path d="M78.9937 84.945H100.791C100.094 93.027 97.7685 100.233 93.8159 106.563C89.8633 112.836 84.3122 117.781 77.1627 121.399C70.0131 125.016 61.3233 126.824 51.093 126.824C43.246 126.824 36.1836 125.468 29.906 122.755C23.6283 119.986 18.2517 116.086 13.7759 111.056C9.30021 105.969 5.87076 99.8373 3.48758 92.6596C1.16253 85.482 0 77.4565 0 68.5834V58.3255C0 49.4524 1.19159 41.427 3.57477 34.2493C6.01607 27.0716 9.50365 20.9395 14.0375 15.853C18.5714 10.71 24.0062 6.78204 30.3419 4.06922C36.7358 1.35641 43.9144 0 51.8777 0C61.9917 0 70.5363 1.80854 77.5114 5.42563C84.4866 9.04272 89.8923 14.0445 93.7287 20.4309C97.6231 26.8173 100.006 34.1363 100.878 42.3877H79.0808C78.4996 37.0751 77.2208 32.5255 75.2445 28.7389C73.3263 24.9523 70.4781 22.0699 66.6999 20.0918C62.9217 18.0572 57.981 17.0399 51.8777 17.0399C46.8789 17.0399 42.5194 17.9441 38.7993 19.7527C35.0792 21.5612 31.9695 24.2175 29.47 27.7216C26.9706 31.2256 25.0815 35.5492 23.8027 40.6922C22.5821 45.7788 21.9717 51.6 21.9717 58.156V68.5834C21.9717 74.8002 22.5239 80.452 23.6283 85.5385C24.7909 90.5685 26.5347 94.892 28.8597 98.5091C31.2429 102.126 34.2655 104.924 37.9274 106.902C41.5894 108.88 45.9779 109.869 51.093 109.869C57.3125 109.869 62.3405 108.908 66.1768 106.987C70.0713 105.065 73.0066 102.268 74.9829 98.5939C77.0174 94.8638 78.3543 90.3142 78.9937 84.945Z" fill="white" fill-opacity="0.05"/>
</svg>
