<svg width="1181" height="127" viewBox="0 0 1181 127" fill="none" xmlns="http://www.w3.org/2000/svg">
<path d="M1160.07 93.3378C1160.07 90.7946 1159.69 88.5339 1158.93 86.5558C1158.22 84.5777 1156.95 82.7691 1155.1 81.1301C1153.26 79.4912 1150.65 77.9087 1147.29 76.3827C1143.97 74.8002 1139.74 73.1895 1134.58 71.5505C1128.94 69.742 1123.73 67.7356 1118.95 65.5315C1114.23 63.2708 1110.11 60.671 1106.58 57.7321C1103.05 54.7367 1100.31 51.3174 1098.35 47.4743C1096.4 43.5746 1095.42 39.0815 1095.42 33.995C1095.42 28.965 1096.43 24.3871 1098.44 20.2613C1100.5 16.1356 1103.4 12.575 1107.15 9.57963C1110.95 6.52771 1115.42 4.18226 1120.58 2.54326C1125.74 0.847755 1131.44 0 1137.68 0C1146.47 0 1154.04 1.69551 1160.39 5.08653C1166.8 8.47755 1171.71 13.0272 1175.13 18.7354C1178.6 24.4436 1180.34 30.7452 1180.34 37.6403H1160.07C1160.07 33.5711 1159.23 29.9823 1157.54 26.8738C1155.92 23.7089 1153.42 21.2221 1150.05 19.4136C1146.74 17.605 1142.54 16.7008 1137.43 16.7008C1132.6 16.7008 1128.59 17.4638 1125.38 18.9897C1122.18 20.5157 1119.79 22.5785 1118.22 25.1783C1116.65 27.7781 1115.86 30.717 1115.86 33.995C1115.86 36.3122 1116.37 38.4316 1117.41 40.3531C1118.44 42.2182 1120.01 43.9702 1122.13 45.6092C1124.24 47.1917 1126.9 48.6894 1130.11 50.1023C1133.31 51.5152 1137.08 52.8717 1141.42 54.1715C1147.99 56.2062 1153.72 58.4668 1158.6 60.9536C1163.49 63.3838 1167.56 66.1531 1170.81 69.2616C1174.07 72.37 1176.51 75.9023 1178.14 79.8585C1179.77 83.7582 1180.58 88.1948 1180.58 93.1683C1180.58 98.3678 1179.58 103.059 1177.57 107.241C1175.56 111.367 1172.69 114.899 1168.94 117.838C1165.25 120.72 1160.8 122.953 1155.59 124.535C1150.43 126.061 1144.68 126.824 1138.33 126.824C1132.63 126.824 1127.01 126.033 1121.48 124.45C1115.99 122.868 1111 120.466 1106.5 117.245C1101.99 113.967 1098.41 109.897 1095.75 105.037C1093.09 100.12 1091.76 94.3834 1091.76 87.8274H1112.2C1112.2 91.8401 1112.85 95.2594 1114.15 98.0853C1115.51 100.911 1117.38 103.228 1119.77 105.037C1122.15 106.789 1124.92 108.089 1128.07 108.937C1131.27 109.784 1134.69 110.208 1138.33 110.208C1143.11 110.208 1147.1 109.502 1150.3 108.089C1153.55 106.676 1156 104.698 1157.63 102.154C1159.25 99.6112 1160.07 96.6723 1160.07 93.3378Z" fill="white" fill-opacity="0.05"/>
<path d="M1083.01 108.266V125.136H1020.08V108.266H1083.01ZM1025.86 1.70312V125.136H1005.42V1.70312H1025.86ZM1074.79 53.2466V69.8626H1020.08V53.2466H1074.79ZM1082.6 1.70312V18.6582H1020.08V1.70312H1082.6Z" fill="white" fill-opacity="0.05"/>
<path d="M982.019 1.70312V125.136H961.584V1.70312H982.019Z" fill="white" fill-opacity="0.05"/>
<path d="M939.572 62.0557V109.191C937.889 111.508 935.257 114.051 931.674 116.821C928.146 119.533 923.451 121.879 917.589 123.857C911.728 125.835 904.427 126.824 895.689 126.824C888.253 126.824 881.441 125.524 875.253 122.924C869.066 120.268 863.719 116.397 859.214 111.31C854.764 106.224 851.317 100.035 848.875 92.7444C846.432 85.3972 845.211 77.0327 845.211 67.6508V59.0885C845.211 49.7632 846.324 41.4552 848.549 34.1645C850.829 26.8173 854.085 20.6004 858.319 15.5139C862.552 10.4274 867.655 6.58423 873.625 3.98445C879.65 1.32815 886.462 0 894.06 0C903.776 0 911.809 1.69551 918.159 5.08653C924.564 8.42103 929.503 13.0554 932.977 18.9897C936.451 24.924 938.649 31.706 939.572 39.3358H919.543C918.892 35.0405 917.617 31.1974 915.717 27.8064C913.871 24.4153 911.212 21.759 907.738 19.8375C904.319 17.8594 899.868 16.8703 894.386 16.8703C889.664 16.8703 885.512 17.8029 881.929 19.6679C878.347 21.533 875.362 24.2741 872.974 27.8911C870.64 31.5082 868.876 35.9166 867.682 41.1161C866.488 46.3157 865.891 52.25 865.891 58.919V67.6508C865.891 74.4329 866.569 80.452 867.926 85.708C869.337 90.9641 871.345 95.4007 873.951 99.0178C876.61 102.635 879.84 105.376 883.639 107.241C887.439 109.05 891.726 109.954 896.503 109.954C901.171 109.954 904.997 109.558 907.982 108.767C910.968 107.919 913.329 106.93 915.066 105.8C916.857 104.613 918.241 103.483 919.218 102.409V77.9087H894.549V62.0557H939.572Z" fill="white" fill-opacity="0.05"/>
<path d="M830.11 60.0211V66.8031C830.11 76.1284 828.943 84.4929 826.609 91.8966C824.275 99.3004 820.937 105.602 816.595 110.802C812.307 116.001 807.151 119.986 801.126 122.755C795.101 125.468 788.425 126.824 781.098 126.824C773.825 126.824 767.176 125.468 761.151 122.755C755.18 119.986 749.997 116.001 745.6 110.802C741.204 105.602 737.785 99.3004 735.342 91.8966C732.954 84.4929 731.76 76.1284 731.76 66.8031V60.0211C731.76 50.6957 732.954 42.3595 735.342 35.0123C737.73 27.6086 741.095 21.3069 745.438 16.1073C749.834 10.8513 755.018 6.86682 760.988 4.154C767.013 1.38467 773.662 0 780.935 0C788.262 0 794.938 1.38467 800.963 4.154C806.988 6.86682 812.171 10.8513 816.513 16.1073C820.856 21.3069 824.194 27.6086 826.528 35.0123C828.916 42.3595 830.11 50.6957 830.11 60.0211ZM809.675 66.8031V59.8515C809.675 52.9564 809.023 46.8809 807.721 41.6248C806.472 36.3122 804.6 31.8756 802.103 28.315C799.66 24.6979 796.648 21.9851 793.066 20.1766C789.483 18.3115 785.44 17.379 780.935 17.379C776.43 17.379 772.413 18.3115 768.885 20.1766C765.357 21.9851 762.345 24.6979 759.848 28.315C757.406 31.8756 755.533 36.3122 754.23 41.6248C752.928 46.8809 752.277 52.9564 752.277 59.8515V66.8031C752.277 73.6982 752.928 79.802 754.23 85.1146C755.533 90.4272 757.433 94.9203 759.93 98.5939C762.481 102.211 765.52 104.952 769.048 106.817C772.576 108.626 776.593 109.53 781.098 109.53C785.657 109.53 789.701 108.626 793.229 106.817C796.757 104.952 799.742 102.211 802.184 98.5939C804.627 94.9203 806.472 90.4272 807.721 85.1146C809.023 79.802 809.675 73.6982 809.675 66.8031Z" fill="white" fill-opacity="0.05"/>
<path d="M727.167 108.266V125.136H667.652V108.266H727.167ZM673.351 1.70312V125.136H652.916V1.70312H673.351Z" fill="white" fill-opacity="0.05"/>
<path d="M634.481 60.0211V66.8031C634.481 76.1284 633.314 84.4929 630.98 91.8966C628.646 99.3004 625.308 105.602 620.966 110.802C616.678 116.001 611.522 119.986 605.497 122.755C599.472 125.468 592.796 126.824 585.469 126.824C578.196 126.824 571.547 125.468 565.522 122.755C559.551 119.986 554.368 116.001 549.972 110.802C545.575 105.602 542.156 99.3004 539.713 91.8966C537.325 84.4929 536.131 76.1284 536.131 66.8031V60.0211C536.131 50.6957 537.325 42.3595 539.713 35.0123C542.101 27.6086 545.467 21.3069 549.809 16.1073C554.205 10.8513 559.389 6.86682 565.359 4.154C571.384 1.38467 578.033 0 585.306 0C592.633 0 599.309 1.38467 605.334 4.154C611.359 6.86682 616.542 10.8513 620.885 16.1073C625.227 21.3069 628.565 27.6086 630.899 35.0123C633.287 42.3595 634.481 50.6957 634.481 60.0211ZM614.046 66.8031V59.8515C614.046 52.9564 613.394 46.8809 612.092 41.6248C610.843 36.3122 608.971 31.8756 606.474 28.315C604.032 24.6979 601.019 21.9851 597.437 20.1766C593.855 18.3115 589.811 17.379 585.306 17.379C580.801 17.379 576.784 18.3115 573.256 20.1766C569.728 21.9851 566.716 24.6979 564.219 28.315C561.777 31.8756 559.904 36.3122 558.602 41.6248C557.299 46.8809 556.648 52.9564 556.648 59.8515V66.8031C556.648 73.6982 557.299 79.802 558.602 85.1146C559.904 90.4272 561.804 94.9203 564.301 98.5939C566.852 102.211 569.891 104.952 573.419 106.817C576.947 108.626 580.964 109.53 585.469 109.53C590.028 109.53 594.072 108.626 597.6 106.817C601.128 104.952 604.113 102.211 606.555 98.5939C608.998 94.9203 610.843 90.4272 612.092 85.1146C613.394 79.802 614.046 73.6982 614.046 66.8031Z" fill="white" fill-opacity="0.05"/>
<path d="M517.615 1.70312V125.136H497.18L444.015 36.7154V125.136H423.58V1.70312H444.015L497.343 90.2935V1.70312H517.615Z" fill="white" fill-opacity="0.05"/>
<path d="M385.527 53.2466V70.117H322.593V53.2466H385.527ZM327.64 1.70312V125.136H307.205V1.70312H327.64ZM401.24 1.70312V125.136H380.886V1.70312H401.24Z" fill="white" fill-opacity="0.05"/>
<path d="M270.284 84.945H290.638C289.987 93.027 287.816 100.233 284.125 106.563C280.434 112.836 275.25 117.781 268.574 121.399C261.898 125.016 253.784 126.824 244.231 126.824C236.904 126.824 230.309 125.468 224.447 122.755C218.585 119.986 213.564 116.086 209.385 111.056C205.206 105.969 202.003 99.8373 199.778 92.6596C197.607 85.482 196.521 77.4565 196.521 68.5834V58.3255C196.521 49.4524 197.634 41.427 199.86 34.2493C202.139 27.0716 205.396 20.9395 209.629 15.853C213.863 10.71 218.938 6.78204 224.854 4.06922C230.825 1.35641 237.528 0 244.964 0C254.408 0 262.387 1.80854 268.9 5.42563C275.413 9.04272 280.461 14.0445 284.043 20.4309C287.68 26.8173 289.905 34.1363 290.719 42.3877H270.365C269.823 37.0751 268.629 32.5255 266.783 28.7389C264.992 24.9523 262.332 22.0699 258.804 20.0918C255.276 18.0572 250.663 17.0399 244.964 17.0399C240.296 17.0399 236.225 17.9441 232.751 19.7527C229.278 21.5612 226.374 24.2175 224.04 27.7216C221.706 31.2256 219.942 35.5492 218.748 40.6922C217.608 45.7788 217.038 51.6 217.038 58.156V68.5834C217.038 74.8002 217.554 80.452 218.585 85.5385C219.671 90.5685 221.299 94.892 223.47 98.5091C225.695 102.126 228.518 104.924 231.937 106.902C235.357 108.88 239.455 109.869 244.231 109.869C250.039 109.869 254.734 108.908 258.316 106.987C261.953 105.065 264.694 102.268 266.539 98.5939C268.439 94.8638 269.687 90.3142 270.284 84.945Z" fill="white" fill-opacity="0.05"/>
<path d="M185.579 108.266V125.136H122.645V108.266H185.579ZM128.426 1.70312V125.136H107.99V1.70312H128.426ZM177.356 53.2466V69.8626H122.645V53.2466H177.356ZM185.172 1.70312V18.6582H122.645V1.70312H185.172Z" fill="white" fill-opacity="0.05"/>
<path d="M57.1538 1.70312V125.136H36.8813V1.70312H57.1538ZM94.3607 1.70312V18.6582H0V1.70312H94.3607Z" fill="white" fill-opacity="0.05"/>
</svg>
